<svg width="55" height="19" viewBox="0 0 55 19" fill="none" xmlns="http://www.w3.org/2000/svg">
<g id="tres-estrelas-douradas">
<g id="uma-estrela" filter="url(#filter0_d_2179_1658)">
<path d="M45.5 11.2316L48.1674 12.8449C48.6559 13.1406 49.2537 12.7035 49.1251 12.1507L48.4181 9.11693L50.777 7.07298C51.2076 6.70018 50.9762 5.99316 50.4106 5.94816L47.3061 5.68464L46.0913 2.81796C45.8728 2.29733 45.1272 2.29733 44.9087 2.81796L43.6939 5.67821L40.5894 5.94174C40.0238 5.98673 39.7924 6.69376 40.223 7.06655L42.5819 9.1105L41.8749 12.1443C41.7463 12.6971 42.3441 13.1341 42.8326 12.8385L45.5 11.2316Z" fill="hsl(45, 100%, 50%)"/>
</g>
<g id="uma-estrela_2" filter="url(#filter1_d_2179_1658)">
<path d="M9.5 11.2316L12.1674 12.8449C12.6559 13.1406 13.2537 12.7035 13.1251 12.1507L12.4181 9.11693L14.777 7.07298C15.2076 6.70018 14.9762 5.99316 14.4106 5.94816L11.3061 5.68464L10.0913 2.81796C9.8728 2.29733 9.1272 2.29733 8.90867 2.81796L7.69387 5.67821L4.58938 5.94174C4.02375 5.98673 3.79236 6.69376 4.22301 7.06655L6.58191 9.1105L5.87488 12.1443C5.74633 12.6971 6.34409 13.1341 6.83258 12.8385L9.5 11.2316Z" fill="hsl(45, 100%, 50%)"/>
</g>
<g id="uma-estrela_3" filter="url(#filter2_d_2179_1658)">
<path d="M27.5 11.2316L30.1674 12.8449C30.6559 13.1406 31.2537 12.7035 31.1251 12.1507L30.4181 9.11693L32.777 7.07298C33.2076 6.70018 32.9762 5.99316 32.4106 5.94816L29.3061 5.68464L28.0913 2.81796C27.8728 2.29733 27.1272 2.29733 26.9087 2.81796L25.6939 5.67821L22.5894 5.94174C22.0238 5.98673 21.7924 6.69376 22.223 7.06655L24.5819 9.1105L23.8749 12.1443C23.7463 12.6971 24.3441 13.1341 24.8326 12.8385L27.5 11.2316Z" fill="hsl(45, 100%, 50%)"/>
</g>
</g>
<defs>
<filter id="filter0_d_2179_1658" x="36" y="0.42749" width="19" height="18.5127" filterUnits="userSpaceOnUse" color-interpolation-filters="sRGB">
<feFlood flood-opacity="0" result="BackgroundImageFix"/>
<feColorMatrix in="SourceAlpha" type="matrix" values="0 0 0 0 0 0 0 0 0 0 0 0 0 0 0 0 0 0 127 0" result="hardAlpha"/>
<feOffset dy="2"/>
<feGaussianBlur stdDeviation="2"/>
<feComposite in2="hardAlpha" operator="out"/>
<feColorMatrix type="matrix" values="0 0 0 0 0 0 0 0 0 0 0 0 0 0 0 0 0 0 0.25 0"/>
<feBlend mode="normal" in2="BackgroundImageFix" result="effect1_dropShadow_2179_1658"/>
<feBlend mode="normal" in="SourceGraphic" in2="effect1_dropShadow_2179_1658" result="shape"/>
</filter>
<filter id="filter1_d_2179_1658" x="0" y="0.42749" width="19" height="18.5127" filterUnits="userSpaceOnUse" color-interpolation-filters="sRGB">
<feFlood flood-opacity="0" result="BackgroundImageFix"/>
<feColorMatrix in="SourceAlpha" type="matrix" values="0 0 0 0 0 0 0 0 0 0 0 0 0 0 0 0 0 0 127 0" result="hardAlpha"/>
<feOffset dy="2"/>
<feGaussianBlur stdDeviation="2"/>
<feComposite in2="hardAlpha" operator="out"/>
<feColorMatrix type="matrix" values="0 0 0 0 0 0 0 0 0 0 0 0 0 0 0 0 0 0 0.25 0"/>
<feBlend mode="normal" in2="BackgroundImageFix" result="effect1_dropShadow_2179_1658"/>
<feBlend mode="normal" in="SourceGraphic" in2="effect1_dropShadow_2179_1658" result="shape"/>
</filter>
<filter id="filter2_d_2179_1658" x="18" y="0.42749" width="19" height="18.5127" filterUnits="userSpaceOnUse" color-interpolation-filters="sRGB">
<feFlood flood-opacity="0" result="BackgroundImageFix"/>
<feColorMatrix in="SourceAlpha" type="matrix" values="0 0 0 0 0 0 0 0 0 0 0 0 0 0 0 0 0 0 127 0" result="hardAlpha"/>
<feOffset dy="2"/>
<feGaussianBlur stdDeviation="2"/>
<feComposite in2="hardAlpha" operator="out"/>
<feColorMatrix type="matrix" values="0 0 0 0 0 0 0 0 0 0 0 0 0 0 0 0 0 0 0.25 0"/>
<feBlend mode="normal" in2="BackgroundImageFix" result="effect1_dropShadow_2179_1658"/>
<feBlend mode="normal" in="SourceGraphic" in2="effect1_dropShadow_2179_1658" result="shape"/>
</filter>
</defs>
</svg>
