<svg width="91" height="19" viewBox="0 0 91 19" fill="none" xmlns="http://www.w3.org/2000/svg">
<g id="cinco-estrelas-douradas">
<g id="uma-estrela" filter="url(#filter0_di_2015_1701)">
<path d="M81.5 10.8041L84.1674 12.4174C84.6559 12.7131 85.2537 12.276 85.1251 11.7232L84.4181 8.68944L86.777 6.64549C87.2076 6.27269 86.9762 5.56567 86.4106 5.52067L83.3061 5.25715L82.0913 2.39047C81.8728 1.86984 81.1272 1.86984 80.9087 2.39047L79.6939 5.25072L76.5894 5.51425C76.0238 5.55924 75.7924 6.26627 76.223 6.63906L78.5819 8.68301L77.8749 11.7168C77.7463 12.2696 78.3441 12.7066 78.8326 12.411L81.5 10.8041Z" fill="#EFB810"/>
</g>
<g id="uma-estrela_2" filter="url(#filter1_di_2015_1701)">
<path d="M9.5 10.8041L12.1674 12.4174C12.6559 12.7131 13.2537 12.276 13.1251 11.7232L12.4181 8.68944L14.777 6.64549C15.2076 6.27269 14.9762 5.56567 14.4106 5.52067L11.3061 5.25715L10.0913 2.39047C9.8728 1.86984 9.1272 1.86984 8.90867 2.39047L7.69387 5.25072L4.58938 5.51425C4.02375 5.55924 3.79236 6.26627 4.22301 6.63906L6.58191 8.68301L5.87488 11.7168C5.74633 12.2696 6.34409 12.7066 6.83258 12.411L9.5 10.8041Z" fill="#EFB810"/>
</g>
<g id="uma-estrela_3" filter="url(#filter2_di_2015_1701)">
<path d="M27.5 10.8041L30.1674 12.4174C30.6559 12.7131 31.2537 12.276 31.1251 11.7232L30.4181 8.68944L32.777 6.64549C33.2076 6.27269 32.9762 5.56567 32.4106 5.52067L29.3061 5.25715L28.0913 2.39047C27.8728 1.86984 27.1272 1.86984 26.9087 2.39047L25.6939 5.25072L22.5894 5.51425C22.0238 5.55924 21.7924 6.26627 22.223 6.63906L24.5819 8.68301L23.8749 11.7168C23.7463 12.2696 24.3441 12.7066 24.8326 12.411L27.5 10.8041Z" fill="#EFB810"/>
</g>
<g id="uma-estrela_4" filter="url(#filter3_di_2015_1701)">
<path d="M45.5 10.8041L48.1674 12.4174C48.6559 12.7131 49.2537 12.276 49.1251 11.7232L48.4181 8.68944L50.777 6.64549C51.2076 6.27269 50.9762 5.56567 50.4106 5.52067L47.3061 5.25715L46.0913 2.39047C45.8728 1.86984 45.1272 1.86984 44.9087 2.39047L43.6939 5.25072L40.5894 5.51425C40.0238 5.55924 39.7924 6.26627 40.223 6.63906L42.5819 8.68301L41.8749 11.7168C41.7463 12.2696 42.3441 12.7066 42.8326 12.411L45.5 10.8041Z" fill="#EFB810"/>
</g>
<g id="uma-estrela_5" filter="url(#filter4_di_2015_1701)">
<path d="M63.5 10.8041L66.1674 12.4174C66.6559 12.7131 67.2537 12.276 67.1251 11.7232L66.4181 8.68944L68.777 6.64549C69.2076 6.27269 68.9762 5.56567 68.4106 5.52067L65.3061 5.25715L64.0913 2.39047C63.8728 1.86984 63.1272 1.86984 62.9087 2.39047L61.6939 5.25072L58.5894 5.51425C58.0238 5.55924 57.7924 6.26627 58.223 6.63906L60.5819 8.68301L59.8749 11.7168C59.7463 12.2696 60.3441 12.7066 60.8326 12.411L63.5 10.8041Z" fill="#EFB810"/>
</g>
</g>
<defs>
<filter id="filter0_di_2015_1701" x="72" y="0" width="19" height="18.5127" filterUnits="userSpaceOnUse" color-interpolation-filters="sRGB">
<feFlood flood-opacity="0" result="BackgroundImageFix"/>
<feColorMatrix in="SourceAlpha" type="matrix" values="0 0 0 0 0 0 0 0 0 0 0 0 0 0 0 0 0 0 127 0" result="hardAlpha"/>
<feOffset dy="2"/>
<feGaussianBlur stdDeviation="2"/>
<feComposite in2="hardAlpha" operator="out"/>
<feColorMatrix type="matrix" values="0 0 0 0 0 0 0 0 0 0 0 0 0 0 0 0 0 0 0.25 0"/>
<feBlend mode="normal" in2="BackgroundImageFix" result="effect1_dropShadow_2015_1701"/>
<feBlend mode="normal" in="SourceGraphic" in2="effect1_dropShadow_2015_1701" result="shape"/>
<feColorMatrix in="SourceAlpha" type="matrix" values="0 0 0 0 0 0 0 0 0 0 0 0 0 0 0 0 0 0 127 0" result="hardAlpha"/>
<feOffset dy="4"/>
<feGaussianBlur stdDeviation="2"/>
<feComposite in2="hardAlpha" operator="arithmetic" k2="-1" k3="1"/>
<feColorMatrix type="matrix" values="0 0 0 0 0 0 0 0 0 0 0 0 0 0 0 0 0 0 0.25 0"/>
<feBlend mode="normal" in2="shape" result="effect2_innerShadow_2015_1701"/>
</filter>
<filter id="filter1_di_2015_1701" x="0" y="0" width="19" height="18.5127" filterUnits="userSpaceOnUse" color-interpolation-filters="sRGB">
<feFlood flood-opacity="0" result="BackgroundImageFix"/>
<feColorMatrix in="SourceAlpha" type="matrix" values="0 0 0 0 0 0 0 0 0 0 0 0 0 0 0 0 0 0 127 0" result="hardAlpha"/>
<feOffset dy="2"/>
<feGaussianBlur stdDeviation="2"/>
<feComposite in2="hardAlpha" operator="out"/>
<feColorMatrix type="matrix" values="0 0 0 0 0 0 0 0 0 0 0 0 0 0 0 0 0 0 0.25 0"/>
<feBlend mode="normal" in2="BackgroundImageFix" result="effect1_dropShadow_2015_1701"/>
<feBlend mode="normal" in="SourceGraphic" in2="effect1_dropShadow_2015_1701" result="shape"/>
<feColorMatrix in="SourceAlpha" type="matrix" values="0 0 0 0 0 0 0 0 0 0 0 0 0 0 0 0 0 0 127 0" result="hardAlpha"/>
<feOffset dy="4"/>
<feGaussianBlur stdDeviation="2"/>
<feComposite in2="hardAlpha" operator="arithmetic" k2="-1" k3="1"/>
<feColorMatrix type="matrix" values="0 0 0 0 0 0 0 0 0 0 0 0 0 0 0 0 0 0 0.25 0"/>
<feBlend mode="normal" in2="shape" result="effect2_innerShadow_2015_1701"/>
</filter>
<filter id="filter2_di_2015_1701" x="18" y="0" width="19" height="18.5127" filterUnits="userSpaceOnUse" color-interpolation-filters="sRGB">
<feFlood flood-opacity="0" result="BackgroundImageFix"/>
<feColorMatrix in="SourceAlpha" type="matrix" values="0 0 0 0 0 0 0 0 0 0 0 0 0 0 0 0 0 0 127 0" result="hardAlpha"/>
<feOffset dy="2"/>
<feGaussianBlur stdDeviation="2"/>
<feComposite in2="hardAlpha" operator="out"/>
<feColorMatrix type="matrix" values="0 0 0 0 0 0 0 0 0 0 0 0 0 0 0 0 0 0 0.25 0"/>
<feBlend mode="normal" in2="BackgroundImageFix" result="effect1_dropShadow_2015_1701"/>
<feBlend mode="normal" in="SourceGraphic" in2="effect1_dropShadow_2015_1701" result="shape"/>
<feColorMatrix in="SourceAlpha" type="matrix" values="0 0 0 0 0 0 0 0 0 0 0 0 0 0 0 0 0 0 127 0" result="hardAlpha"/>
<feOffset dy="4"/>
<feGaussianBlur stdDeviation="2"/>
<feComposite in2="hardAlpha" operator="arithmetic" k2="-1" k3="1"/>
<feColorMatrix type="matrix" values="0 0 0 0 0 0 0 0 0 0 0 0 0 0 0 0 0 0 0.25 0"/>
<feBlend mode="normal" in2="shape" result="effect2_innerShadow_2015_1701"/>
</filter>
<filter id="filter3_di_2015_1701" x="36" y="0" width="19" height="18.5127" filterUnits="userSpaceOnUse" color-interpolation-filters="sRGB">
<feFlood flood-opacity="0" result="BackgroundImageFix"/>
<feColorMatrix in="SourceAlpha" type="matrix" values="0 0 0 0 0 0 0 0 0 0 0 0 0 0 0 0 0 0 127 0" result="hardAlpha"/>
<feOffset dy="2"/>
<feGaussianBlur stdDeviation="2"/>
<feComposite in2="hardAlpha" operator="out"/>
<feColorMatrix type="matrix" values="0 0 0 0 0 0 0 0 0 0 0 0 0 0 0 0 0 0 0.25 0"/>
<feBlend mode="normal" in2="BackgroundImageFix" result="effect1_dropShadow_2015_1701"/>
<feBlend mode="normal" in="SourceGraphic" in2="effect1_dropShadow_2015_1701" result="shape"/>
<feColorMatrix in="SourceAlpha" type="matrix" values="0 0 0 0 0 0 0 0 0 0 0 0 0 0 0 0 0 0 127 0" result="hardAlpha"/>
<feOffset dy="4"/>
<feGaussianBlur stdDeviation="2"/>
<feComposite in2="hardAlpha" operator="arithmetic" k2="-1" k3="1"/>
<feColorMatrix type="matrix" values="0 0 0 0 0 0 0 0 0 0 0 0 0 0 0 0 0 0 0.25 0"/>
<feBlend mode="normal" in2="shape" result="effect2_innerShadow_2015_1701"/>
</filter>
<filter id="filter4_di_2015_1701" x="54" y="0" width="19" height="18.5127" filterUnits="userSpaceOnUse" color-interpolation-filters="sRGB">
<feFlood flood-opacity="0" result="BackgroundImageFix"/>
<feColorMatrix in="SourceAlpha" type="matrix" values="0 0 0 0 0 0 0 0 0 0 0 0 0 0 0 0 0 0 127 0" result="hardAlpha"/>
<feOffset dy="2"/>
<feGaussianBlur stdDeviation="2"/>
<feComposite in2="hardAlpha" operator="out"/>
<feColorMatrix type="matrix" values="0 0 0 0 0 0 0 0 0 0 0 0 0 0 0 0 0 0 0.25 0"/>
<feBlend mode="normal" in2="BackgroundImageFix" result="effect1_dropShadow_2015_1701"/>
<feBlend mode="normal" in="SourceGraphic" in2="effect1_dropShadow_2015_1701" result="shape"/>
<feColorMatrix in="SourceAlpha" type="matrix" values="0 0 0 0 0 0 0 0 0 0 0 0 0 0 0 0 0 0 127 0" result="hardAlpha"/>
<feOffset dy="4"/>
<feGaussianBlur stdDeviation="2"/>
<feComposite in2="hardAlpha" operator="arithmetic" k2="-1" k3="1"/>
<feColorMatrix type="matrix" values="0 0 0 0 0 0 0 0 0 0 0 0 0 0 0 0 0 0 0.25 0"/>
<feBlend mode="normal" in2="shape" result="effect2_innerShadow_2015_1701"/>
</filter>
</defs>
</svg>
