<svg width="19" height="22" viewBox="0 0 19 22" fill="none" xmlns="http://www.w3.org/2000/svg">
<g id="add">
<path id="Vector" d="M10.0932 20.7579L10.0822 20.7599L10.0112 20.7949L9.99117 20.7989L9.97717 20.7949L9.90617 20.7599C9.89551 20.7566 9.8875 20.7583 9.88217 20.7649L9.87817 20.7749L9.86117 21.2029L9.86617 21.2229L9.87617 21.2359L9.98017 21.3099L9.99517 21.3139L10.0072 21.3099L10.1112 21.2359L10.1232 21.2199L10.1272 21.2029L10.1102 20.7759C10.1075 20.7653 10.1018 20.7593 10.0932 20.7579ZM10.3582 20.6449L10.3452 20.6469L10.1602 20.7399L10.1502 20.7499L10.1472 20.7609L10.1652 21.1909L10.1702 21.2029L10.1782 21.2099L10.3792 21.3029C10.3918 21.3063 10.4015 21.3036 10.4082 21.2949L10.4122 21.2809L10.3782 20.6669C10.3748 20.6549 10.3682 20.6476 10.3582 20.6449ZM9.64317 20.6469C9.63876 20.6443 9.6335 20.6434 9.62847 20.6445C9.62344 20.6456 9.61903 20.6487 9.61617 20.6529L9.61017 20.6669L9.57617 21.2809C9.57684 21.2929 9.58251 21.3009 9.59317 21.3049L9.60817 21.3029L9.80917 21.2099L9.81917 21.2019L9.82317 21.1909L9.84017 20.7609L9.83717 20.7489L9.82717 20.7389L9.64317 20.6469Z" fill="#22C358"/>
<path id="Vector_2" d="M8 17.5C8 17.8978 8.15804 18.2794 8.43934 18.5607C8.72064 18.842 9.10218 19 9.5 19C9.89782 19 10.2794 18.842 10.5607 18.5607C10.842 18.2794 11 17.8978 11 17.5V11H17.5C17.8978 11 18.2794 10.842 18.5607 10.5607C18.842 10.2794 19 9.89782 19 9.5C19 9.10218 18.842 8.72064 18.5607 8.43934C18.2794 8.15804 17.8978 8 17.5 8H11V1.5C11 1.10218 10.842 0.720644 10.5607 0.43934C10.2794 0.158035 9.89782 0 9.5 0C9.10218 0 8.72064 0.158035 8.43934 0.43934C8.15804 0.720644 8 1.10218 8 1.5V8H1.5C1.10218 8 0.720644 8.15804 0.43934 8.43934C0.158035 8.72064 0 9.10218 0 9.5C0 9.89782 0.158035 10.2794 0.43934 10.5607C0.720644 10.842 1.10218 11 1.5 11H8V17.5Z" fill="#22C358"/>
</g>
</svg>
