<svg width="24" height="24" viewBox="0 0 24 24" fill="none" xmlns="http://www.w3.org/2000/svg">
<g id="Group">
<path id="Vector" fill-rule="evenodd" clip-rule="evenodd" d="M12 24C18.6274 24 24 18.6274 24 12C24 5.37262 18.6274 0 12 0C5.37262 0 0 5.37262 0 12C0 18.6274 5.37262 24 12 24ZM12 22.2C6.36666 22.2 1.8 17.6333 1.8 12C1.8 6.36666 6.36666 1.8 12 1.8C17.6333 1.8 22.2 6.36666 22.2 12C22.2 17.6333 17.6333 22.2 12 22.2Z" fill="hsl(218, 22%, 60%, 0.7)"/>
<path id="Vector_2" fill-rule="evenodd" clip-rule="evenodd" d="M11.9999 21.6C17.3018 21.6 21.5999 17.3019 21.5999 12C21.5999 6.69803 17.3018 2.39996 11.9999 2.39996C6.69796 2.39996 2.3999 6.69803 2.3999 12C2.3999 17.3019 6.69796 21.6 11.9999 21.6ZM11.9999 2.99996C11.6685 2.99996 11.3999 3.26996 11.3999 3.60409V11.4H7.19812C7.11939 11.3999 7.04142 11.4154 6.96869 11.4455C6.89596 11.4757 6.82991 11.5199 6.77432 11.5756C6.71873 11.6314 6.67471 11.6976 6.64478 11.7704C6.61484 11.8432 6.59959 11.9212 6.5999 12C6.5999 12.3314 6.87328 12.6 7.19709 12.6H12.5999V3.60053C12.6001 3.52164 12.5848 3.44349 12.5547 3.37055C12.5247 3.29762 12.4805 3.23135 12.4247 3.17554C12.369 3.11973 12.3027 3.07549 12.2298 3.04536C12.1569 3.01523 12.0788 2.9998 11.9999 2.99996Z" fill="hsl(218, 22%, 60%)"/>
</g>
</svg>
