<svg width="15" height="22" viewBox="0 0 15 22" fill="none" xmlns="http://www.w3.org/2000/svg">
<g id="Property 1=Default">
<path id="anterior " d="M14.3348 18.1997L5.49576 10.9081L14.3348 3.61653C14.5457 3.44255 14.713 3.23599 14.8271 3.00867C14.9412 2.78135 15 2.5377 15 2.29165C15 2.04559 14.9412 1.80195 14.8271 1.57462C14.713 1.3473 14.5457 1.14074 14.3348 0.966756C14.1238 0.792769 13.8735 0.654755 13.5979 0.560594C13.3223 0.466433 13.027 0.417969 12.7287 0.417969C12.4304 0.417969 12.1351 0.466433 11.8595 0.560594C11.5839 0.654755 11.3336 0.792769 11.1226 0.966756L0.666214 9.59263C0.455027 9.76649 0.287479 9.973 0.173161 10.2003C0.0588435 10.4277 0 10.6714 0 10.9175C0 11.1636 0.0588435 11.4074 0.173161 11.6347C0.287479 11.862 0.455027 12.0686 0.666214 12.2424L11.1226 20.8683C12.0111 21.6012 13.4463 21.6012 14.3348 20.8683C15.2004 20.1354 15.2232 18.9326 14.3348 18.1997Z" fill="hsl(220, 22%, 60%)"/>
</g>
</svg>
