<svg width="10" height="15" viewBox="0 0 10 15" fill="none" xmlns="http://www.w3.org/2000/svg">
<path id="anterior " d="M9.5565 12.0945L3.66384 7.23343L9.5565 2.37237C9.69711 2.25638 9.80864 2.11867 9.88474 1.96712C9.96083 1.81557 10 1.65314 10 1.48911C10 1.32507 9.96083 1.16264 9.88474 1.01109C9.80864 0.859542 9.69711 0.72184 9.5565 0.605849C9.41589 0.489857 9.24897 0.397848 9.06526 0.335074C8.88155 0.2723 8.68465 0.23999 8.4858 0.23999C8.28695 0.23999 8.09005 0.2723 7.90634 0.335074C7.72263 0.397848 7.5557 0.489857 7.4151 0.605849L0.444143 6.35643C0.303351 6.47234 0.191653 6.61001 0.115441 6.76157C0.039229 6.91313 0 7.07561 0 7.23969C0 7.40377 0.039229 7.56625 0.115441 7.71781C0.191653 7.86937 0.303351 8.00704 0.444143 8.12295L7.4151 13.8735C8.0074 14.3621 8.9642 14.3621 9.5565 13.8735C10.1336 13.3849 10.1488 12.5831 9.5565 12.0945Z" fill="#F8F8FC"/>
</svg>
