<svg width="20" height="20" viewBox="0 0 20 20" fill="none" xmlns="http://www.w3.org/2000/svg">
<path id="arquivos-select" d="M17.97 6.68018V5.88018C17.9748 5.50791 17.9037 5.13858 17.761 4.79471C17.6182 4.45085 17.407 4.13967 17.14 3.88018C16.7952 3.54523 16.3725 3.30125 15.91 3.17018V2.80018C15.9144 2.42887 15.844 2.06048 15.7031 1.7169C15.5623 1.37332 15.3538 1.06157 15.09 0.800183C14.5555 0.279373 13.8363 -0.00830544 13.09 0.000182636H6.92C6.18083 -0.00249964 5.47059 0.28721 4.94418 0.806123C4.41778 1.32504 4.11792 2.03105 4.11 2.77018V3.14018C3.64749 3.27125 3.22482 3.51523 2.88 3.85018C2.61484 4.11052 2.40541 4.42208 2.26444 4.7659C2.12348 5.10973 2.05392 5.47863 2.06 5.85018V6.65018C1.43545 6.99655 0.915022 7.50382 0.55277 8.1193C0.190518 8.73478 -0.00034646 9.43601 4.72117e-07 10.1502V15.9902C0.0183851 17.0592 0.45666 18.078 1.22011 18.8265C1.98356 19.575 3.01086 19.993 4.08 19.9902H15.92C16.9891 19.993 18.0164 19.575 18.7799 18.8265C19.5433 18.078 19.9816 17.0592 20 15.9902V10.1502C19.998 9.44409 19.8091 8.7511 19.4526 8.14163C19.0961 7.53216 18.5845 7.02793 17.97 6.68018ZM14.88 11.9602C14.88 12.3269 14.8074 12.6901 14.6665 13.0287C14.5255 13.3673 14.319 13.6746 14.0587 13.933C13.7984 14.1915 13.4896 14.3958 13.15 14.5343C12.8104 14.6729 12.4468 14.7428 12.08 14.7402H7.97C7.41127 14.7457 6.86358 14.5846 6.39689 14.2773C5.93021 13.97 5.56572 13.5306 5.35 13.0152C5.20861 12.6711 5.13722 12.3022 5.14 11.9302V10.9302C5.14 10.7313 5.21902 10.5405 5.35967 10.3999C5.50032 10.2592 5.69109 10.1802 5.89 10.1802C6.08891 10.1802 6.27968 10.2592 6.42033 10.3999C6.56098 10.5405 6.64 10.7313 6.64 10.9302V11.9302C6.64079 12.0979 6.67478 12.2637 6.74 12.4182C6.80522 12.5727 6.90038 12.7127 7.02 12.8302C7.268 13.0742 7.602 13.2112 7.95 13.2102H12.06C12.4045 13.2084 12.7347 13.0721 12.98 12.8302C13.1019 12.7144 13.1986 12.5748 13.264 12.4199C13.3294 12.265 13.3621 12.0983 13.36 11.9302V10.9302C13.36 10.7313 13.439 10.5405 13.5797 10.3999C13.7203 10.2592 13.9111 10.1802 14.11 10.1802C14.3089 10.1802 14.4997 10.2592 14.6403 10.3999C14.781 10.5405 14.86 10.7313 14.86 10.9302L14.88 11.9602ZM16.47 6.18018C16.2937 6.16455 16.1163 6.16455 15.94 6.18018H4.1C3.92699 6.16513 3.75301 6.16513 3.58 6.18018V5.88018C3.57851 5.71217 3.61146 5.54563 3.67682 5.39084C3.74217 5.23605 3.83855 5.09629 3.96 4.98018C4.20533 4.73831 4.5355 4.60194 4.88 4.60018H15.16C15.508 4.60018 15.842 4.73618 16.09 4.98018C16.2096 5.09769 16.3048 5.23771 16.37 5.39218C16.4352 5.54665 16.4692 5.71251 16.47 5.88018V6.18018Z" fill="hsl(220, 85%, 88%)"/>
</svg>
