<svg width="20" height="20" viewBox="0 0 20 20" fill="none" xmlns="http://www.w3.org/2000/svg">
<g id="arquivo-select">
<path id="Vector" d="M6.51047 0H13.4905C13.7225 0 13.9005 1.05239e-07 14.0565 0.0150001C15.1645 0.124 16.0715 0.79 16.4565 1.687H3.54447C3.92947 0.79 4.83646 0.124 5.94446 0.0150001C6.09846 1.05239e-07 6.27647 0 6.51047 0ZM4.31046 2.723C2.92046 2.723 1.78047 3.563 1.40047 4.677L1.37646 4.747C1.77446 4.627 2.18946 4.547 2.60846 4.494C3.68846 4.355 5.05447 4.355 6.64047 4.355H13.5325C15.1185 4.355 16.4835 4.355 17.5645 4.494C17.9845 4.548 18.3985 4.626 18.7965 4.747L18.7735 4.677C18.3935 3.563 17.2535 2.723 15.8625 2.723H4.31046Z" fill="#99CCFF"/>
<path id="Vector_2" fill-rule="evenodd" clip-rule="evenodd" d="M6.67233 5.54199H13.3283C16.7023 5.54199 18.3903 5.54199 19.3383 6.52899C20.2863 7.51599 20.0623 9.03999 19.6163 12.089L19.1943 14.981C18.8443 17.372 18.6693 18.568 17.7723 19.284C16.8753 20 15.5523 20 12.9053 20H7.09533C4.44933 20 3.12533 20 2.22833 19.284C1.33133 18.568 1.15633 17.372 0.806329 14.981L0.384329 12.09C-0.0626707 9.03999 -0.285671 7.51599 0.662329 6.52899C1.61033 5.54199 3.29833 5.54199 6.67233 5.54199ZM6.00033 16C6.00033 15.586 6.37333 15.25 6.83333 15.25H13.1673C13.6273 15.25 14.0003 15.586 14.0003 16C14.0003 16.414 13.6273 16.75 13.1673 16.75H6.83333C6.37333 16.75 6.00033 16.414 6.00033 16Z" fill="#99CCFF"/>
</g>
</svg>
