<svg width="22" height="22" viewBox="0 0 22 22" fill="none" xmlns="http://www.w3.org/2000/svg">
<g id="arquivos">
<path id="Vector" d="M19 9C19 7.6 19 6.9 18.727 6.365C18.4875 5.89451 18.1053 5.51189 17.635 5.272C17.1 5 16.4 5 15 5H7C5.6 5 4.9 5 4.365 5.272C3.89435 5.51172 3.51172 5.89435 3.272 6.365C3 6.9 3 7.6 3 9M17 5C17 3.114 17 2.172 16.414 1.586C15.828 1 14.886 1 13 1H9C7.114 1 6.172 1 5.586 1.586C5 2.172 5 3.114 5 5M1 15C1 12.661 1 11.492 1.536 10.638C1.81596 10.1929 2.19262 9.81656 2.638 9.537C3.492 9 4.66 9 7 9H15C17.339 9 18.508 9 19.362 9.537C19.8073 9.81627 20.1839 10.1922 20.464 10.637C21 11.493 21 12.662 21 15C21 17.338 21 18.508 20.463 19.362C20.1837 19.8073 19.8078 20.1839 19.363 20.464C18.507 21 17.338 21 15 21H7C4.661 21 3.492 21 2.638 20.463C2.19273 20.1837 1.81608 19.8078 1.536 19.363C1 18.507 1 17.338 1 15Z" stroke="hsl(220, 20%, 80%)" stroke-width="1.5" stroke-linecap="round" stroke-linejoin="round"/>
<path id="Vector_2" d="M14 13C14 13.5304 13.7893 14.0391 13.4142 14.4142C13.0391 14.7893 12.5304 15 12 15H10C9.46957 15 8.96086 14.7893 8.58579 14.4142C8.21071 14.0391 8 13.5304 8 13" stroke="hsl(220, 20%, 80%)" stroke-width="1.5" stroke-linecap="round" stroke-linejoin="round"/>
</g>
</svg>
