<svg width="15" height="21" viewBox="0 0 15 21" fill="none" xmlns="http://www.w3.org/2000/svg">
<path id="pr&#195;&#179;ximo" d="M0.665248 3.21826L9.50424 10.5098L0.665248 17.8014C0.454338 17.9754 0.287036 18.182 0.172893 18.4093C0.0587491 18.6366 -8.32243e-07 18.8803 -8.34465e-07 19.1263C-8.36687e-07 19.3724 0.0587491 19.616 0.172893 19.8433C0.287036 20.0707 0.454338 20.2772 0.665248 20.4512C0.876158 20.6252 1.12655 20.7632 1.40211 20.8574C1.67768 20.9515 1.97303 21 2.2713 21C2.56957 21 2.86492 20.9515 3.14049 20.8574C3.41606 20.7632 3.66644 20.6252 3.87735 20.4512L14.3338 11.8253C14.545 11.6515 14.7125 11.445 14.8268 11.2176C14.9412 10.9903 15 10.7466 15 10.5005C15 10.2543 14.9412 10.0106 14.8268 9.78327C14.7125 9.55593 14.545 9.34942 14.3338 9.17556L3.87735 0.549689C2.9889 -0.183228 1.5537 -0.183228 0.665248 0.549689C-0.200426 1.28261 -0.223207 2.48534 0.665248 3.21826Z" fill="#ABA4BD"/>
</svg>
