<svg width="15" height="21" viewBox="0 0 15 21" fill="none" xmlns="http://www.w3.org/2000/svg">
<g id="Property 1=Variant2">
<path id="pr&#195;&#179;ximo" d="M0.66525 3.21826L9.50424 10.5098L0.66525 17.8014C0.45434 17.9754 0.287039 18.182 0.172894 18.4093C0.0587511 18.6366 9.53674e-07 18.8803 9.53674e-07 19.1263C9.53674e-07 19.3724 0.0587511 19.616 0.172894 19.8433C0.287039 20.0707 0.45434 20.2772 0.66525 20.4512C0.87616 20.6252 1.12655 20.7632 1.40211 20.8574C1.67768 20.9515 1.97303 21 2.2713 21C2.56957 21 2.86493 20.9515 3.14049 20.8574C3.41606 20.7632 3.66645 20.6252 3.87736 20.4512L14.3338 11.8253C14.545 11.6515 14.7125 11.445 14.8268 11.2176C14.9412 10.9903 15 10.7466 15 10.5004C15 10.2543 14.9412 10.0106 14.8268 9.78327C14.7125 9.55593 14.545 9.34942 14.3338 9.17556L3.87736 0.549686C2.9889 -0.183229 1.55371 -0.183229 0.66525 0.549686C-0.200423 1.2826 -0.223205 2.48534 0.66525 3.21826Z" fill="hsl(220, 80%, 88%)"/>
</g>
</svg>
