<svg width="32" height="28" viewBox="0 0 32 28" fill="none" xmlns="http://www.w3.org/2000/svg">
<path id="calendario-select" d="M8.41137 2.04879C8.41137 1.74412 8.27027 1.45193 8.01912 1.23649C7.76798 1.02105 7.42735 0.900024 7.07217 0.900024C6.71699 0.900024 6.37636 1.02105 6.12521 1.23649C5.87406 1.45193 5.73297 1.74412 5.73297 2.04879V4.83034C4.4303 4.9888 3.22387 5.5086 2.29789 6.31038C1.37191 7.11215 0.777262 8.15185 0.604732 9.27071L0.449385 10.2709C0.422601 10.4394 0.397603 10.6094 0.37439 10.7794C0.359989 10.8855 0.372001 10.9931 0.409631 11.0949C0.447262 11.1967 0.509654 11.2906 0.592687 11.3702C0.675719 11.4498 0.777502 11.5134 0.891312 11.5568C1.00512 11.6002 1.12837 11.6224 1.2529 11.6219H30.7492C30.8737 11.6224 30.997 11.6002 31.1108 11.5568C31.2246 11.5134 31.3264 11.4498 31.4094 11.3702C31.4925 11.2906 31.5548 11.1967 31.5925 11.0949C31.6301 10.9931 31.6421 10.8855 31.6277 10.7794C31.6027 10.6109 31.5795 10.4394 31.5527 10.2709L31.3974 9.27071C31.2248 8.15185 30.6302 7.11215 29.7042 6.31038C28.7782 5.5086 27.5718 4.9888 26.2691 4.83034V2.04879C26.2691 1.74412 26.128 1.45193 25.8769 1.23649C25.6257 1.02105 25.2851 0.900024 24.9299 0.900024C24.5748 0.900024 24.2341 1.02105 23.983 1.23649C23.7318 1.45193 23.5907 1.74412 23.5907 2.04879V4.60365C18.5415 4.21793 13.4624 4.21793 8.41315 4.60365L8.41137 2.04879ZM31.9723 14.6485C31.964 14.4521 31.8669 14.2662 31.7016 14.1301C31.5363 13.994 31.3158 13.9185 31.0867 13.9194H0.91364C0.684544 13.9185 0.464014 13.994 0.298718 14.1301C0.133422 14.2662 0.036329 14.4521 0.0279837 14.6485C-0.0784405 17.4204 0.118841 20.1947 0.617231 22.9349C0.800612 23.9445 1.36977 24.8732 2.2353 25.5752C3.10084 26.2772 4.21369 26.7126 5.39906 26.8132L7.52928 26.9939C13.1628 27.4687 18.8375 27.4687 24.471 26.9939L26.6013 26.8132C27.7866 26.7126 28.8995 26.2772 29.765 25.5752C30.6305 24.8732 31.1997 23.9445 31.3831 22.9349C31.8807 20.1946 32.078 17.4204 31.9723 14.6485Z" fill="hsl(218, 40%, 65%)"/>
</svg>
