<svg width="32" height="27" viewBox="0 0 32 27" fill="none" xmlns="http://www.w3.org/2000/svg">
<path id="calendario" fill-rule="evenodd" clip-rule="evenodd" d="M7.07153 0C7.42673 0 7.76738 0.121025 8.01854 0.33645C8.2697 0.551876 8.4108 0.844056 8.4108 1.14871V3.70345C13.4603 3.31774 18.5397 3.31774 23.5892 3.70345V1.14871C23.5892 0.844056 23.7303 0.551876 23.9814 0.33645C24.2326 0.121025 24.5732 0 24.9284 0C25.2836 0 25.6243 0.121025 25.8754 0.33645C26.1266 0.551876 26.2677 0.844056 26.2677 1.14871V3.93013C27.5704 4.08858 28.7769 4.60836 29.7029 5.4101C30.629 6.21183 31.2237 7.25148 31.3962 8.37029L31.5516 9.37044C32.2015 13.5763 32.1444 17.8403 31.3837 22.0339C31.2003 23.0434 30.6311 23.9721 29.7655 24.674C28.9 25.376 27.7871 25.8114 26.6016 25.9119L24.4713 26.0926C18.8374 26.5691 13.1625 26.5691 7.52867 26.0926L5.39834 25.9119C4.21291 25.8114 3.09999 25.376 2.23442 24.674C1.36884 23.9721 0.799652 23.0434 0.616262 22.0339C-0.14472 17.8413 -0.201247 13.5768 0.448407 9.37044L0.603762 8.37029C0.776301 7.25148 1.37098 6.21183 2.29701 5.4101C3.22304 4.60836 4.42953 4.08858 5.73226 3.93013V1.14871C5.73226 0.844056 5.87336 0.551876 6.12453 0.33645C6.37569 0.121025 6.71634 0 7.07153 0ZM7.86616 6.05449C13.2768 5.59653 18.7232 5.59653 24.1338 6.05449L25.7498 6.19233C27.298 6.32252 28.5355 7.35023 28.7409 8.67202L28.8962 9.67217C28.9498 10.0214 28.998 10.3706 29.0427 10.7213H2.9573C3.00194 10.3706 3.05016 10.0214 3.10373 9.67217L3.25908 8.67202C3.35818 8.02967 3.70763 7.43494 4.25065 6.98449C4.79366 6.53403 5.49832 6.25431 6.25011 6.1908L7.86616 6.05449ZM2.7448 13.0188C2.56943 15.9134 2.74297 18.8159 3.26265 21.6801C3.35469 22.1863 3.64015 22.6521 4.07421 23.0041C4.50827 23.3562 5.06635 23.5747 5.66084 23.6252L7.79116 23.8059C13.25 24.2685 18.7499 24.2685 24.2088 23.8059L26.3391 23.6252C26.9336 23.5747 27.4917 23.3562 27.9258 23.0041C28.3598 22.6521 28.6453 22.1863 28.7373 21.6801C29.2587 18.8129 29.4302 15.9104 29.2552 13.0188H2.7448Z" fill="hsl(218, 12%, 60%)"/>
</svg>
