<svg width="25" height="24" viewBox="0 0 25 24" fill="none" xmlns="http://www.w3.org/2000/svg">
<path id="Vector" d="M14.6663 6.67643H17.3369V9.347C17.3369 10.0814 17.9378 10.6823 18.6722 10.6823C19.4066 10.6823 20.0075 10.0814 20.0075 9.347V6.67643H22.6781C23.4125 6.67643 24.0134 6.07555 24.0134 5.34115C24.0134 4.60674 23.4125 4.00586 22.6781 4.00586H20.0075V1.33529C20.0075 0.600879 19.4066 0 18.6722 0C17.9378 0 17.3369 0.600879 17.3369 1.33529V4.00586H14.6663C13.9319 4.00586 13.3311 4.60674 13.3311 5.34115C13.3311 6.07555 13.9319 6.67643 14.6663 6.67643ZM21.6232 16.384L18.2316 15.9967C17.8328 15.9499 17.4285 15.994 17.0492 16.1259C16.67 16.2577 16.3255 16.4738 16.0417 16.7578L13.5848 19.2148C9.79414 17.2869 6.71309 14.2059 4.78523 10.4152L7.25551 7.94495C7.82968 7.37078 8.11009 6.55626 8.01662 5.75508L7.62939 2.39016C7.55728 1.73853 7.24799 1.13619 6.76043 0.697887C6.27288 0.25958 5.64113 0.015931 4.98552 0.0133529H2.67548C1.1666 0.0133529 -0.0885649 1.26852 0.00490515 2.7774C0.712607 14.1807 9.83261 23.2874 21.2226 23.9951C22.7315 24.0886 23.9866 22.8334 23.9866 21.3245V19.0145C24 17.6792 22.9718 16.5308 21.6232 16.384Z" fill="#22C358"/>
</svg>
