<svg width="14" height="14" viewBox="0 0 14 14" fill="none" xmlns="http://www.w3.org/2000/svg">
<path id="centro-de-custo-select" fill-rule="evenodd" clip-rule="evenodd" d="M13.4143 5.1965C13.4143 5.87891 13.2799 6.55465 13.0187 7.18511C12.7576 7.81558 12.3748 8.38844 11.8923 8.87098C11.4097 9.35352 10.8369 9.73629 10.2064 9.99744C9.57595 10.2586 8.90022 10.393 8.21781 10.393C7.53539 10.393 6.85966 10.2586 6.22919 9.99744C5.59873 9.73629 5.02587 9.35352 4.54333 8.87098C4.06079 8.38844 3.67802 7.81558 3.41687 7.18511C3.15572 6.55465 3.02131 5.87891 3.02131 5.1965C3.02131 3.8183 3.5688 2.49655 4.54333 1.52202C5.51786 0.547487 6.83961 0 8.21781 0C9.59601 0 10.9178 0.547487 11.8923 1.52202C12.8668 2.49655 13.4143 3.8183 13.4143 5.1965ZM8.21831 1.2725C8.41722 1.2725 8.60799 1.35152 8.74864 1.49217C8.88929 1.63282 8.96831 1.82359 8.96831 2.0225V2.3395C9.25574 2.40803 9.52143 2.54743 9.74117 2.74498C9.96091 2.94254 10.1277 3.19196 10.2263 3.4705C10.2926 3.65814 10.2817 3.86444 10.1959 4.044C10.1101 4.22357 9.95645 4.3617 9.76881 4.428C9.58117 4.4943 9.37487 4.48335 9.19531 4.39755C9.01574 4.31176 8.87761 4.15814 8.81131 3.9705C8.79256 3.91814 8.7581 3.87284 8.71264 3.8408C8.66718 3.80876 8.61293 3.79154 8.55731 3.7915H7.76931C7.73002 3.79163 7.69215 3.80622 7.66292 3.83248C7.6337 3.85874 7.61516 3.89483 7.61083 3.93389C7.6065 3.97294 7.6167 4.01221 7.63947 4.04423C7.66224 4.07625 7.696 4.09877 7.73431 4.1075L8.93531 4.3695C9.32654 4.45543 9.67706 4.67153 9.92958 4.98247C10.1821 5.29342 10.3217 5.68082 10.3255 6.08136C10.3293 6.4819 10.1972 6.8719 9.95068 7.18762C9.70415 7.50334 9.35783 7.7261 8.96831 7.8195V8.1365C8.96831 8.33541 8.88929 8.52618 8.74864 8.66683C8.60799 8.80748 8.41722 8.8865 8.21831 8.8865C8.0194 8.8865 7.82863 8.80748 7.68798 8.66683C7.54733 8.52618 7.46831 8.33541 7.46831 8.1365V7.8195C7.18088 7.75097 6.91518 7.61157 6.69545 7.41402C6.47571 7.21646 6.30893 6.96704 6.21031 6.6885C6.17741 6.59566 6.16313 6.49724 6.16826 6.39887C6.1734 6.30051 6.19786 6.20412 6.24025 6.11521C6.32586 5.93564 6.4793 5.79744 6.66681 5.731C6.85432 5.66456 7.06054 5.67533 7.2401 5.76095C7.41967 5.84656 7.55787 5.99999 7.62431 6.1875C7.64289 6.24005 7.67728 6.28556 7.72275 6.31779C7.76823 6.35002 7.82257 6.36738 7.87831 6.3675H8.55831C8.62426 6.36653 8.68757 6.34146 8.7363 6.29701C8.78503 6.25257 8.81581 6.19182 8.82282 6.12624C8.82983 6.06066 8.8126 5.99478 8.77437 5.94103C8.73614 5.88728 8.67956 5.84939 8.61531 5.8345L7.41431 5.5725C7.0399 5.49049 6.70542 5.28144 6.46762 4.98085C6.22982 4.68025 6.10337 4.30663 6.10973 3.9234C6.11609 3.54017 6.25487 3.17095 6.50251 2.87841C6.75015 2.58588 7.09139 2.38804 7.46831 2.3185V2.0225C7.46831 1.92401 7.48771 1.82648 7.5254 1.73549C7.56309 1.64449 7.61833 1.56181 7.68798 1.49217C7.75762 1.42253 7.8403 1.36728 7.9313 1.32959C8.02229 1.2919 8.11982 1.2725 8.21831 1.2725ZM8.21831 11.6425C8.54498 11.6425 8.86497 11.6188 9.17831 11.5715C8.71603 12.1231 8.14422 12.5726 7.49911 12.8916C6.85399 13.2106 6.14965 13.3921 5.43071 13.4246C4.71178 13.4571 3.99393 13.3399 3.32266 13.0804C2.65139 12.821 2.04134 12.4249 1.53117 11.9173C1.021 11.4097 0.62184 10.8017 0.358984 10.1317C0.0961278 9.46175 -0.024691 8.7445 0.00418434 8.02541C0.0330597 7.30632 0.211 6.60107 0.526727 5.95435C0.842454 5.30763 1.28908 4.73356 1.83831 4.2685C1.70514 5.18389 1.77054 6.11722 2.03008 7.00509C2.28962 7.89296 2.73721 8.71457 3.34246 9.4141C3.9477 10.1136 4.69641 10.6747 5.53773 11.0592C6.37906 11.4437 7.29328 11.6427 8.21831 11.6425Z" fill="#C6D8FA"/>
</svg>
