<svg width="15" height="15" viewBox="0 0 15 15" fill="none" xmlns="http://www.w3.org/2000/svg">
<g id="centro-de-custo">
<path id="Vector" d="M10.1952 4.53301C10.125 4.33425 9.99483 4.16214 9.82274 4.04037C9.65065 3.9186 9.44505 3.85315 9.23424 3.85301H8.44424C8.22063 3.85419 8.00528 3.93767 7.8393 4.08751C7.67331 4.23735 7.5683 4.44305 7.54432 4.66537C7.52033 4.8877 7.57904 5.11107 7.70924 5.29286C7.83944 5.47466 8.03203 5.60215 8.25024 5.65101L9.45223 5.91401C9.69752 5.96818 9.91419 6.11095 10.0607 6.31498C10.2073 6.519 10.2734 6.76993 10.2464 7.01967C10.2194 7.26941 10.1012 7.5004 9.91438 7.66839C9.72762 7.83637 9.48543 7.92953 9.23424 7.93001H8.55423C8.34342 7.92987 8.13782 7.86441 7.96573 7.74264C7.79364 7.62087 7.66351 7.44877 7.59324 7.25001M8.89424 3.85301V2.83301M8.89424 8.94901V7.92901" stroke="#C2C9D6" stroke-linecap="round" stroke-linejoin="round"/>
<path id="Vector_2" d="M1.59231 6.427C1.09815 7.33738 0.905857 8.38117 1.04314 9.40788C1.18043 10.4346 1.6402 11.3912 2.35618 12.1398C3.07216 12.8883 4.00736 13.3902 5.02695 13.573C6.04654 13.7558 7.09784 13.6102 8.02931 13.157M4.00331 5.891C4.00331 7.18817 4.51861 8.43222 5.43585 9.34946C6.35309 10.2667 7.59713 10.782 8.89431 10.782C10.1915 10.782 11.4355 10.2667 12.3528 9.34946C13.27 8.43222 13.7853 7.18817 13.7853 5.891C13.7853 4.59383 13.27 3.34978 12.3528 2.43254C11.4355 1.5153 10.1915 1 8.89431 1C7.59713 1 6.35309 1.5153 5.43585 2.43254C4.51861 3.34978 4.00331 4.59383 4.00331 5.891Z" stroke="#C2C9D6" stroke-linecap="round" stroke-linejoin="round"/>
</g>
</svg>
