<svg width="29" height="23" viewBox="0 0 29 23" fill="none" xmlns="http://www.w3.org/2000/svg">
<path id="Vector" d="M28.4147 5.86595L12.3647 21.916C11.9897 22.2907 11.4812 22.5013 10.9509 22.5013C10.4207 22.5013 9.91223 22.2907 9.5372 21.916L0.584699 12.916C0.210291 12.541 0 12.0327 0 11.5028C0 10.9729 0.210291 10.4647 0.584699 10.0897L3.0847 7.5897C3.45953 7.21644 3.96697 7.00687 4.49595 7.00687C5.02493 7.00687 5.53237 7.21644 5.9072 7.5897L11.0009 12.5297L23.0959 0.583452C23.4708 0.209808 23.9785 0 24.5078 0C25.0371 0 25.5448 0.209808 25.9197 0.583452L28.4134 3.02595C28.601 3.2118 28.7499 3.43293 28.8515 3.67661C28.9532 3.92028 29.0056 4.18167 29.0057 4.44569C29.0058 4.70972 28.9536 4.97115 28.8522 5.21491C28.7508 5.45868 28.6021 5.67994 28.4147 5.86595Z" fill="hsl(218, 80%, 50%)"/>
</svg>
