<svg width="16" height="17" viewBox="0 0 16 17" fill="none" xmlns="http://www.w3.org/2000/svg">
<g id="Vector">
<path d="M8.0001 4.87402C8.22115 4.87402 8.43316 4.78621 8.58947 4.6299C8.74578 4.47358 8.8336 4.26158 8.8336 4.04052C8.8336 3.81946 8.74578 3.60746 8.58947 3.45115C8.43316 3.29484 8.22115 3.20702 8.0001 3.20702C7.77904 3.20702 7.56703 3.29484 7.41072 3.45115C7.25441 3.60746 7.1666 3.81946 7.1666 4.04052C7.1666 4.26158 7.25441 4.47358 7.41072 4.6299C7.56703 4.78621 7.77904 4.87402 8.0001 4.87402ZM14.0001 12.34V7.00002H14.0921C14.9851 7.00002 15.3521 5.85202 14.6221 5.33502L8.7721 1.18302C8.54673 1.02238 8.27686 0.936035 8.0001 0.936035C7.72333 0.936035 7.45346 1.02238 7.2281 1.18302L1.3761 5.33502C0.648095 5.85202 1.0131 6.99902 1.9061 6.99902H2.0001V12.339C1.3991 12.725 1.0001 13.399 1.0001 14.166V15.499C1.0001 15.6316 1.05277 15.7588 1.14654 15.8526C1.24031 15.9463 1.36749 15.999 1.5001 15.999H14.5001C14.6327 15.999 14.7599 15.9463 14.8536 15.8526C14.9474 15.7588 15.0001 15.6316 15.0001 15.499V14.166C15.0001 13.399 14.6021 12.725 14.0001 12.34ZM7.8061 1.99902C7.8622 1.95873 7.92953 1.93706 7.9986 1.93706C8.06767 1.93706 8.13499 1.95873 8.1911 1.99902L13.8301 5.99902H2.1681L7.8061 1.99902ZM12.9981 6.99902V12.005C12.9429 12.0007 12.8875 11.9987 12.8321 11.999H10.9981V7.00002L12.9981 6.99902ZM3.0001 12.005V7.00002H5.0001V12H3.1661C3.1101 12 3.05443 12.002 2.9991 12.006M3.1661 13H12.8331C13.4771 13 13.9991 13.522 13.9991 14.167V15H2.0001V14.167C2.0001 13.522 2.5221 13 3.1661 13ZM7.5001 12H6.0001V7.00002H7.5001V12ZM8.5001 12V7.00002H10.0001V12H8.5001Z" fill="url(#paint0_linear_2091_1677)"/>
<path d="M8.0001 4.87402C8.22115 4.87402 8.43316 4.78621 8.58947 4.6299C8.74578 4.47358 8.8336 4.26158 8.8336 4.04052C8.8336 3.81946 8.74578 3.60746 8.58947 3.45115C8.43316 3.29484 8.22115 3.20702 8.0001 3.20702C7.77904 3.20702 7.56703 3.29484 7.41072 3.45115C7.25441 3.60746 7.1666 3.81946 7.1666 4.04052C7.1666 4.26158 7.25441 4.47358 7.41072 4.6299C7.56703 4.78621 7.77904 4.87402 8.0001 4.87402ZM14.0001 12.34V7.00002H14.0921C14.9851 7.00002 15.3521 5.85202 14.6221 5.33502L8.7721 1.18302C8.54673 1.02238 8.27686 0.936035 8.0001 0.936035C7.72333 0.936035 7.45346 1.02238 7.2281 1.18302L1.3761 5.33502C0.648095 5.85202 1.0131 6.99902 1.9061 6.99902H2.0001V12.339C1.3991 12.725 1.0001 13.399 1.0001 14.166V15.499C1.0001 15.6316 1.05277 15.7588 1.14654 15.8526C1.24031 15.9463 1.36749 15.999 1.5001 15.999H14.5001C14.6327 15.999 14.7599 15.9463 14.8536 15.8526C14.9474 15.7588 15.0001 15.6316 15.0001 15.499V14.166C15.0001 13.399 14.6021 12.725 14.0001 12.34ZM7.8061 1.99902C7.8622 1.95873 7.92953 1.93706 7.9986 1.93706C8.06767 1.93706 8.13499 1.95873 8.1911 1.99902L13.8301 5.99902H2.1681L7.8061 1.99902ZM12.9981 6.99902V12.005C12.9429 12.0007 12.8875 11.9987 12.8321 11.999H10.9981V7.00002L12.9981 6.99902ZM3.0001 12.005V7.00002H5.0001V12H3.1661C3.1101 12 3.05443 12.002 2.9991 12.006M3.1661 13H12.8331C13.4771 13 13.9991 13.522 13.9991 14.167V15H2.0001V14.167C2.0001 13.522 2.5221 13 3.1661 13ZM7.5001 12H6.0001V7.00002H7.5001V12ZM8.5001 12V7.00002H10.0001V12H8.5001Z" fill="black" fill-opacity="0.15"/>
<path d="M3.0001 12.005V7.00002H5.0001V12H3.1661C3.1101 12 3.05443 12.002 2.9991 12.006M8.0001 4.87402C8.22115 4.87402 8.43316 4.78621 8.58947 4.6299C8.74578 4.47358 8.8336 4.26158 8.8336 4.04052C8.8336 3.81946 8.74578 3.60746 8.58947 3.45115C8.43316 3.29484 8.22115 3.20702 8.0001 3.20702C7.77904 3.20702 7.56703 3.29484 7.41072 3.45115C7.25441 3.60746 7.1666 3.81946 7.1666 4.04052C7.1666 4.26158 7.25441 4.47358 7.41072 4.6299C7.56703 4.78621 7.77904 4.87402 8.0001 4.87402ZM14.0001 12.34V7.00002H14.0921C14.9851 7.00002 15.3521 5.85202 14.6221 5.33502L8.7721 1.18302C8.54673 1.02238 8.27686 0.936035 8.0001 0.936035C7.72333 0.936035 7.45346 1.02238 7.2281 1.18302L1.3761 5.33502C0.648095 5.85202 1.0131 6.99902 1.9061 6.99902H2.0001V12.339C1.3991 12.725 1.0001 13.399 1.0001 14.166V15.499C1.0001 15.6316 1.05277 15.7588 1.14654 15.8526C1.24031 15.9463 1.36749 15.999 1.5001 15.999H14.5001C14.6327 15.999 14.7599 15.9463 14.8536 15.8526C14.9474 15.7588 15.0001 15.6316 15.0001 15.499V14.166C15.0001 13.399 14.6021 12.725 14.0001 12.34ZM7.8061 1.99902C7.8622 1.95873 7.92953 1.93706 7.9986 1.93706C8.06767 1.93706 8.13499 1.95873 8.1911 1.99902L13.8301 5.99902H2.1681L7.8061 1.99902ZM12.9981 6.99902V12.005C12.9429 12.0007 12.8875 11.9987 12.8321 11.999H10.9981V7.00002L12.9981 6.99902ZM3.1661 13H12.8331C13.4771 13 13.9991 13.522 13.9991 14.167V15H2.0001V14.167C2.0001 13.522 2.5221 13 3.1661 13ZM7.5001 12H6.0001V7.00002H7.5001V12ZM8.5001 12V7.00002H10.0001V12H8.5001Z" stroke="url(#paint1_linear_2091_1677)" stroke-width="0.3"/>
<path d="M3.0001 12.005V7.00002H5.0001V12H3.1661C3.1101 12 3.05443 12.002 2.9991 12.006M8.0001 4.87402C8.22115 4.87402 8.43316 4.78621 8.58947 4.6299C8.74578 4.47358 8.8336 4.26158 8.8336 4.04052C8.8336 3.81946 8.74578 3.60746 8.58947 3.45115C8.43316 3.29484 8.22115 3.20702 8.0001 3.20702C7.77904 3.20702 7.56703 3.29484 7.41072 3.45115C7.25441 3.60746 7.1666 3.81946 7.1666 4.04052C7.1666 4.26158 7.25441 4.47358 7.41072 4.6299C7.56703 4.78621 7.77904 4.87402 8.0001 4.87402ZM14.0001 12.34V7.00002H14.0921C14.9851 7.00002 15.3521 5.85202 14.6221 5.33502L8.7721 1.18302C8.54673 1.02238 8.27686 0.936035 8.0001 0.936035C7.72333 0.936035 7.45346 1.02238 7.2281 1.18302L1.3761 5.33502C0.648095 5.85202 1.0131 6.99902 1.9061 6.99902H2.0001V12.339C1.3991 12.725 1.0001 13.399 1.0001 14.166V15.499C1.0001 15.6316 1.05277 15.7588 1.14654 15.8526C1.24031 15.9463 1.36749 15.999 1.5001 15.999H14.5001C14.6327 15.999 14.7599 15.9463 14.8536 15.8526C14.9474 15.7588 15.0001 15.6316 15.0001 15.499V14.166C15.0001 13.399 14.6021 12.725 14.0001 12.34ZM7.8061 1.99902C7.8622 1.95873 7.92953 1.93706 7.9986 1.93706C8.06767 1.93706 8.13499 1.95873 8.1911 1.99902L13.8301 5.99902H2.1681L7.8061 1.99902ZM12.9981 6.99902V12.005C12.9429 12.0007 12.8875 11.9987 12.8321 11.999H10.9981V7.00002L12.9981 6.99902ZM3.1661 13H12.8331C13.4771 13 13.9991 13.522 13.9991 14.167V15H2.0001V14.167C2.0001 13.522 2.5221 13 3.1661 13ZM7.5001 12H6.0001V7.00002H7.5001V12ZM8.5001 12V7.00002H10.0001V12H8.5001Z" stroke="black" stroke-opacity="0.15" stroke-width="0.3"/>
</g>
<defs>
<linearGradient id="paint0_linear_2091_1677" x1="0.988281" y1="0.679758" x2="17.8755" y2="11.6436" gradientUnits="userSpaceOnUse">
<stop stop-color="#7A44E7"/>
<stop offset="1" stop-color="#5CE1E6"/>
</linearGradient>
<linearGradient id="paint1_linear_2091_1677" x1="0.988281" y1="0.679758" x2="17.8755" y2="11.6436" gradientUnits="userSpaceOnUse">
<stop stop-color="#7A44E7"/>
<stop offset="1" stop-color="#5CE1E6"/>
</linearGradient>
</defs>
</svg>
