<svg width="16" height="16" viewBox="0 0 16 16" fill="none" xmlns="http://www.w3.org/2000/svg">
<g id="Vector">
<path d="M7.22823 1.18303C7.4535 1.02261 7.72318 0.936401 7.99973 0.936401C8.27629 0.936401 8.54596 1.02261 8.77123 1.18303L14.6232 5.33503C15.3502 5.85103 14.9862 6.99703 14.0952 6.99903H1.90723C1.01323 6.99903 0.647234 5.85203 1.37723 5.33503L7.22823 1.18303ZM8.00023 4.87403C8.22129 4.87403 8.4333 4.78622 8.58961 4.62991C8.74592 4.47359 8.83373 4.26159 8.83373 4.04053C8.83373 3.81947 8.74592 3.60747 8.58961 3.45116C8.4333 3.29485 8.22129 3.20703 8.00023 3.20703C7.77918 3.20703 7.56717 3.29485 7.41086 3.45116C7.25455 3.60747 7.16673 3.81947 7.16673 4.04053C7.16673 4.26159 7.25455 4.47359 7.41086 4.62991C7.56717 4.78622 7.77918 4.87403 8.00023 4.87403ZM2.50023 8.00003V12H4.50023V8.00003H2.50023ZM1.00023 15.166C1.00023 13.969 1.97023 12.999 3.16623 12.999H12.8332C13.4077 12.9998 13.9584 13.2284 14.3647 13.6346C14.7709 14.0408 14.9994 14.5916 15.0002 15.166V15.499C15.0002 15.6316 14.9476 15.7588 14.8538 15.8526C14.76 15.9464 14.6328 15.999 14.5002 15.999H1.50023C1.36763 15.999 1.24045 15.9464 1.14668 15.8526C1.05291 15.7588 1.00023 15.6316 1.00023 15.499V15.166ZM13.5002 7.99903V11.999H11.5002V8.00003L13.5002 7.99903ZM10.5002 7.99903V11.999H8.50023V8.00003L10.5002 7.99903ZM7.50023 7.99903V11.999H5.50023V8.00003L7.50023 7.99903Z" fill="url(#paint0_linear_2091_1679)"/>
<path d="M7.22823 1.18303C7.4535 1.02261 7.72318 0.936401 7.99973 0.936401C8.27629 0.936401 8.54596 1.02261 8.77123 1.18303L14.6232 5.33503C15.3502 5.85103 14.9862 6.99703 14.0952 6.99903H1.90723C1.01323 6.99903 0.647234 5.85203 1.37723 5.33503L7.22823 1.18303ZM8.00023 4.87403C8.22129 4.87403 8.4333 4.78622 8.58961 4.62991C8.74592 4.47359 8.83373 4.26159 8.83373 4.04053C8.83373 3.81947 8.74592 3.60747 8.58961 3.45116C8.4333 3.29485 8.22129 3.20703 8.00023 3.20703C7.77918 3.20703 7.56717 3.29485 7.41086 3.45116C7.25455 3.60747 7.16673 3.81947 7.16673 4.04053C7.16673 4.26159 7.25455 4.47359 7.41086 4.62991C7.56717 4.78622 7.77918 4.87403 8.00023 4.87403ZM2.50023 8.00003V12H4.50023V8.00003H2.50023ZM1.00023 15.166C1.00023 13.969 1.97023 12.999 3.16623 12.999H12.8332C13.4077 12.9998 13.9584 13.2284 14.3647 13.6346C14.7709 14.0408 14.9994 14.5916 15.0002 15.166V15.499C15.0002 15.6316 14.9476 15.7588 14.8538 15.8526C14.76 15.9464 14.6328 15.999 14.5002 15.999H1.50023C1.36763 15.999 1.24045 15.9464 1.14668 15.8526C1.05291 15.7588 1.00023 15.6316 1.00023 15.499V15.166ZM13.5002 7.99903V11.999H11.5002V8.00003L13.5002 7.99903ZM10.5002 7.99903V11.999H8.50023V8.00003L10.5002 7.99903ZM7.50023 7.99903V11.999H5.50023V8.00003L7.50023 7.99903Z" fill="black" fill-opacity="0.15"/>
</g>
<defs>
<linearGradient id="paint0_linear_2091_1679" x1="0.988281" y1="0.68013" x2="17.8752" y2="11.644" gradientUnits="userSpaceOnUse">
<stop stop-color="#7A44E7"/>
<stop offset="1" stop-color="#5CE1E6"/>
</linearGradient>
</defs>
</svg>
