<svg width="32" height="27" viewBox="0 0 32 27" fill="none" xmlns="http://www.w3.org/2000/svg">
<g id="contatos-select">
<path id="Vector" fill-rule="evenodd" clip-rule="evenodd" d="M10.2859 5.64003C10.2859 4.23704 10.8879 2.89151 11.9595 1.89944C13.0311 0.907374 14.4846 0.350037 16.0001 0.350037C17.5156 0.350037 18.969 0.907374 20.0407 1.89944C21.1123 2.89151 21.7143 4.23704 21.7143 5.64003C21.7143 7.04303 21.1123 8.38856 20.0407 9.38062C18.969 10.3727 17.5156 10.93 16.0001 10.93C14.4846 10.93 13.0311 10.3727 11.9595 9.38062C10.8879 8.38856 10.2859 7.04303 10.2859 5.64003ZM21.7143 9.87203C21.7143 8.74963 22.196 7.67321 23.0533 6.87956C23.9106 6.0859 25.0733 5.64003 26.2857 5.64003C27.4981 5.64003 28.6609 6.0859 29.5182 6.87956C30.3755 7.67321 30.8571 8.74963 30.8571 9.87203C30.8571 10.9944 30.3755 12.0708 29.5182 12.8645C28.6609 13.6582 27.4981 14.104 26.2857 14.104C25.0733 14.104 23.9106 13.6582 23.0533 12.8645C22.196 12.0708 21.7143 10.9944 21.7143 9.87203ZM1.14307 9.87203C1.14307 8.74963 1.62469 7.67321 2.482 6.87956C3.3393 6.0859 4.50205 5.64003 5.71446 5.64003C6.92687 5.64003 8.08962 6.0859 8.94692 6.87956C9.80423 7.67321 10.2859 8.74963 10.2859 9.87203C10.2859 10.9944 9.80423 12.0708 8.94692 12.8645C8.08962 13.6582 6.92687 14.104 5.71446 14.104C4.50205 14.104 3.3393 13.6582 2.482 12.8645C1.62469 12.0708 1.14307 10.9944 1.14307 9.87203ZM7.32969 17.4445C8.25895 16.0957 9.54058 14.9855 11.0561 14.2167C12.5716 13.4479 14.272 13.0453 16.0001 13.046C17.4474 13.0448 18.8787 13.3266 20.2003 13.8729C21.5218 14.4192 22.7039 15.2178 23.669 16.2163C24.6341 17.2148 25.3605 18.3908 25.8006 19.6672C26.2408 20.9436 26.3848 22.2917 26.2233 23.6232C26.2035 23.7886 26.1419 23.9474 26.0434 24.0866C25.9449 24.2258 25.8123 24.3416 25.6564 24.4245C22.7178 25.9854 19.388 26.8046 16.0001 26.8C12.6121 26.805 9.28218 25.9858 6.34379 24.4245C6.18789 24.3416 6.0553 24.2258 5.95681 24.0866C5.85832 23.9474 5.79669 23.7886 5.77694 23.6232C5.52102 21.4601 6.06868 19.2809 7.32969 17.4445Z" fill="hsl(220, 30%, 65%)"/>
<path id="Vector_2" d="M5.45837 16.2256C3.95553 18.3732 3.25534 20.918 3.46524 23.4694C2.55021 23.341 1.65025 23.1332 0.77726 22.8487L0.602023 22.7923C0.445674 22.7409 0.30877 22.6487 0.207891 22.5268C0.107012 22.4048 0.0464867 22.2584 0.0336466 22.1053L0.0184086 21.9346C-0.0431453 21.2264 0.0500364 20.514 0.292394 19.8398C0.534751 19.1657 0.921316 18.5437 1.42902 18.0108C1.93673 17.478 2.55518 17.0454 3.24746 16.7386C3.93973 16.4319 4.69166 16.2575 5.45837 16.2256ZM28.5348 23.4694C28.7447 20.918 28.0445 18.3732 26.5416 16.2256C27.3083 16.2575 28.0603 16.4319 28.7525 16.7386C29.4448 17.0454 30.0633 17.478 30.571 18.0108C31.0787 18.5437 31.4652 19.1657 31.7076 19.8398C31.95 20.514 32.0431 21.2264 31.9816 21.9346L31.9664 22.1053C31.9532 22.2582 31.8926 22.4043 31.7917 22.5259C31.6909 22.6476 31.5541 22.7396 31.398 22.7909L31.2227 22.8473C30.3587 23.1294 29.4612 23.3396 28.5348 23.4694Z" fill="hsl(220, 30%, 65%)"/>
</g>
</svg>
