<svg width="36" height="30" viewBox="0 0 36 30" fill="none" xmlns="http://www.w3.org/2000/svg">
<path id="contatos" d="M26.3004 20.0489C27.0681 19.559 27.9685 19.2823 28.8975 19.2507C29.8265 19.219 30.7461 19.4338 31.5499 19.8701C32.3537 20.3064 33.0089 20.9464 33.4396 21.7161C33.8703 22.4859 34.059 23.3538 33.9839 24.2195C32.0149 24.8625 29.9235 25.1127 27.8447 24.954C27.8383 23.2161 27.3027 21.5144 26.3004 20.0504C25.4108 18.7467 24.1837 17.6738 22.7325 16.9308C21.2813 16.1879 19.653 15.7989 17.9983 15.8C16.3439 15.7992 14.7159 16.1883 13.265 16.9312C11.8142 17.6741 10.5873 18.7469 9.69783 20.0504M27.843 24.9524L27.8447 25C27.8447 25.345 27.825 25.6854 27.784 26.0212C24.806 27.6176 21.4316 28.4551 17.9983 28.45C14.4372 28.45 11.0944 27.5668 8.21267 26.0212C8.17048 25.6663 8.1502 25.3095 8.15195 24.9524M8.15195 24.9524C6.07376 25.1169 3.9835 24.8676 2.01602 24.221C1.94111 23.3556 2.1299 22.4879 2.56057 21.7185C2.99124 20.949 3.6462 20.3092 4.44972 19.873C5.25324 19.4367 6.1725 19.2219 7.10121 19.2533C8.02992 19.2847 8.93016 19.561 9.69783 20.0504M8.15195 24.9524C8.15784 23.2148 8.69616 21.5145 9.69783 20.0504M22.9215 6.6C22.9215 7.81999 22.4028 8.99002 21.4795 9.85268C20.5563 10.7154 19.304 11.2 17.9983 11.2C16.6926 11.2 15.4404 10.7154 14.5171 9.85268C13.5938 8.99002 13.0751 7.81999 13.0751 6.6C13.0751 5.38 13.5938 4.20997 14.5171 3.34731C15.4404 2.48464 16.6926 2 17.9983 2C19.304 2 20.5563 2.48464 21.4795 3.34731C22.4028 4.20997 22.9215 5.38 22.9215 6.6ZM32.7679 11.2C32.7679 11.6531 32.6724 12.1017 32.4868 12.5202C32.3012 12.9388 32.0293 13.3191 31.6864 13.6395C31.3435 13.9599 30.9365 14.214 30.4885 14.3874C30.0405 14.5608 29.5604 14.65 29.0755 14.65C28.5906 14.65 28.1104 14.5608 27.6625 14.3874C27.2145 14.214 26.8074 13.9599 26.4646 13.6395C26.1217 13.3191 25.8497 12.9388 25.6641 12.5202C25.4786 12.1017 25.3831 11.6531 25.3831 11.2C25.3831 10.285 25.7721 9.40748 26.4646 8.76048C27.157 8.11348 28.0962 7.74999 29.0755 7.74999C30.0548 7.74999 30.9939 8.11348 31.6864 8.76048C32.3788 9.40748 32.7679 10.285 32.7679 11.2ZM10.6135 11.2C10.6135 11.6531 10.518 12.1017 10.3325 12.5202C10.1469 12.9388 9.87493 13.3191 9.53206 13.6395C9.1892 13.9599 8.78215 14.214 8.33417 14.3874C7.88619 14.5608 7.40604 14.65 6.92115 14.65C6.43626 14.65 5.95612 14.5608 5.50814 14.3874C5.06016 14.214 4.65311 13.9599 4.31024 13.6395C3.96737 13.3191 3.69539 12.9388 3.50983 12.5202C3.32427 12.1017 3.22877 11.6531 3.22877 11.2C3.22877 10.285 3.61779 9.40748 4.31024 8.76048C5.0027 8.11348 5.94187 7.74999 6.92115 7.74999C7.90044 7.74999 8.83961 8.11348 9.53206 8.76048C10.2245 9.40748 10.6135 10.285 10.6135 11.2Z" stroke="hsl(218, 8%, 40%)" stroke-width="2.6" stroke-linecap="round" stroke-linejoin="round"/>
</svg>
