<svg width="16" height="17" viewBox="0 0 16 17" fill="none" xmlns="http://www.w3.org/2000/svg">
<g id="contas">
<path d="M8.01181 4.93799C8.23287 4.93799 8.44488 4.85017 8.60119 4.69386C8.7575 4.53755 8.84531 4.32555 8.84531 4.10449C8.84531 3.88343 8.7575 3.67143 8.60119 3.51511C8.44488 3.3588 8.23287 3.27099 8.01181 3.27099C7.79076 3.27099 7.57875 3.3588 7.42244 3.51511C7.26613 3.67143 7.17831 3.88343 7.17831 4.10449C7.17831 4.32555 7.26613 4.53755 7.42244 4.69386C7.57875 4.85017 7.79076 4.93799 8.01181 4.93799ZM14.0118 12.404V7.06399H14.1038C14.9968 7.06399 15.3638 5.91599 14.6338 5.39899L8.78381 1.24699C8.55845 1.08634 8.28858 1 8.01181 1C7.73505 1 7.46518 1.08634 7.23981 1.24699L1.38781 5.39899C0.659814 5.91599 1.02481 7.06299 1.91781 7.06299H2.01181V12.403C1.41081 12.789 1.01181 13.463 1.01181 14.23V15.563C1.01181 15.6956 1.06449 15.8228 1.15826 15.9165C1.25203 16.0103 1.37921 16.063 1.51181 16.063H14.5118C14.6444 16.063 14.7716 16.0103 14.8654 15.9165C14.9591 15.8228 15.0118 15.6956 15.0118 15.563V14.23C15.0118 13.463 14.6138 12.789 14.0118 12.404ZM7.81781 2.06299C7.87391 2.0227 7.94124 2.00102 8.01031 2.00102C8.07938 2.00102 8.14671 2.0227 8.20281 2.06299L13.8418 6.06299H2.17981L7.81781 2.06299ZM13.0098 7.06299V12.069C12.9546 12.0647 12.8992 12.0627 12.8438 12.063H11.0098V7.06399L13.0098 7.06299ZM3.01181 12.069V7.06399H5.01181V12.064H3.17781C3.12181 12.064 3.06615 12.066 3.01081 12.07M3.17781 13.064H12.8448C13.4888 13.064 14.0108 13.586 14.0108 14.231V15.064H2.01181V14.231C2.01181 13.586 2.53381 13.064 3.17781 13.064ZM7.51181 12.064H6.01181V7.06399H7.51181V12.064ZM8.51181 12.064V7.06399H10.0118V12.064H8.51181Z" fill="hsl(220, 20%, 40%)"/>
<path d="M3.01181 12.069V7.06399H5.01181V12.064H3.17781C3.12181 12.064 3.06615 12.066 3.01081 12.07M8.01181 4.93799C8.23287 4.93799 8.44488 4.85017 8.60119 4.69386C8.7575 4.53755 8.84531 4.32555 8.84531 4.10449C8.84531 3.88343 8.7575 3.67143 8.60119 3.51511C8.44488 3.3588 8.23287 3.27099 8.01181 3.27099C7.79076 3.27099 7.57875 3.3588 7.42244 3.51511C7.26613 3.67143 7.17831 3.88343 7.17831 4.10449C7.17831 4.32555 7.26613 4.53755 7.42244 4.69386C7.57875 4.85017 7.79076 4.93799 8.01181 4.93799ZM14.0118 12.404V7.06399H14.1038C14.9968 7.06399 15.3638 5.91599 14.6338 5.39899L8.78381 1.24699C8.55845 1.08634 8.28858 1 8.01181 1C7.73505 1 7.46518 1.08634 7.23981 1.24699L1.38781 5.39899C0.659814 5.91599 1.02481 7.06299 1.91781 7.06299H2.01181V12.403C1.41081 12.789 1.01181 13.463 1.01181 14.23V15.563C1.01181 15.6956 1.06449 15.8228 1.15826 15.9165C1.25203 16.0103 1.37921 16.063 1.51181 16.063H14.5118C14.6444 16.063 14.7716 16.0103 14.8654 15.9165C14.9591 15.8228 15.0118 15.6956 15.0118 15.563V14.23C15.0118 13.463 14.6138 12.789 14.0118 12.404ZM7.81781 2.06299C7.87391 2.0227 7.94124 2.00102 8.01031 2.00102C8.07938 2.00102 8.14671 2.0227 8.20281 2.06299L13.8418 6.06299H2.17981L7.81781 2.06299ZM13.0098 7.06299V12.069C12.9546 12.0647 12.8992 12.0627 12.8438 12.063H11.0098V7.06399L13.0098 7.06299ZM3.17781 13.064H12.8448C13.4888 13.064 14.0108 13.586 14.0108 14.231V15.064H2.01181V14.231C2.01181 13.586 2.53381 13.064 3.17781 13.064ZM7.51181 12.064H6.01181V7.06399H7.51181V12.064ZM8.51181 12.064V7.06399H10.0118V12.064H8.51181Z" stroke="hsl(220, 20%, 40%)" stroke-width="0.3"/>
</g>
</svg>
