<svg width="15" height="16" viewBox="0 0 15 16" fill="none" xmlns="http://www.w3.org/2000/svg">
<path id="contas-select" d="M6.23995 0.246631C6.46522 0.0862094 6.7349 0 7.01145 0C7.28801 0 7.55768 0.0862094 7.78295 0.246631L13.635 4.39863C14.362 4.91463 13.998 6.06063 13.107 6.06263H0.918953C0.0249528 6.06263 -0.341047 4.91563 0.388953 4.39863L6.23995 0.246631ZM7.01195 3.93763C7.23301 3.93763 7.44501 3.84982 7.60133 3.6935C7.75764 3.53719 7.84545 3.32519 7.84545 3.10413C7.84545 2.88307 7.75764 2.67107 7.60133 2.51476C7.44501 2.35845 7.23301 2.27063 7.01195 2.27063C6.79089 2.27063 6.57889 2.35845 6.42258 2.51476C6.26627 2.67107 6.17845 2.88307 6.17845 3.10413C6.17845 3.32519 6.26627 3.53719 6.42258 3.6935C6.57889 3.84982 6.79089 3.93763 7.01195 3.93763ZM1.51195 7.06363V11.0636H3.51195V7.06363H1.51195ZM0.0119527 14.2296C0.0119527 13.0326 0.981953 12.0626 2.17795 12.0626H11.845C12.4194 12.0634 12.9702 12.292 13.3764 12.6982C13.7826 13.1044 14.0112 13.6552 14.012 14.2296V14.5626C14.012 14.6952 13.9593 14.8224 13.8655 14.9162C13.7717 15.01 13.6446 15.0626 13.512 15.0626H0.511953C0.379345 15.0626 0.252168 15.01 0.158399 14.9162C0.0646313 14.8224 0.0119527 14.6952 0.0119527 14.5626V14.2296ZM12.512 7.06263V11.0626H10.512V7.06363L12.512 7.06263ZM9.51195 7.06263V11.0626H7.51195V7.06363L9.51195 7.06263ZM6.51195 7.06263V11.0626H4.51195V7.06363L6.51195 7.06263Z" fill="hsl(220, 100%, 75%)"/>
</svg>
