<svg width="15" height="16" viewBox="0 0 15 16" fill="none" xmlns="http://www.w3.org/2000/svg">
<path id="contas-corrente" d="M7.01181 3.93799C7.23287 3.93799 7.44488 3.85017 7.60119 3.69386C7.7575 3.53755 7.84531 3.32555 7.84531 3.10449C7.84531 2.88343 7.7575 2.67143 7.60119 2.51511C7.44488 2.3588 7.23287 2.27099 7.01181 2.27099C6.79076 2.27099 6.57875 2.3588 6.42244 2.51511C6.26613 2.67143 6.17831 2.88343 6.17831 3.10449C6.17831 3.32555 6.26613 3.53755 6.42244 3.69386C6.57875 3.85017 6.79076 3.93799 7.01181 3.93799ZM13.0118 11.404V6.06399H13.1038C13.9968 6.06399 14.3638 4.91599 13.6338 4.39899L7.78381 0.246988C7.55845 0.0863399 7.28858 0 7.01181 0C6.73505 0 6.46518 0.0863399 6.23981 0.246988L0.387814 4.39899C-0.340186 4.91599 0.024814 6.06299 0.917814 6.06299H1.01181V11.403C0.410814 11.789 0.0118141 12.463 0.0118141 13.23V14.563C0.0118141 14.6956 0.0644927 14.8228 0.158261 14.9165C0.252029 15.0103 0.379206 15.063 0.511814 15.063H13.5118C13.6444 15.063 13.7716 15.0103 13.8654 14.9165C13.9591 14.8228 14.0118 14.6956 14.0118 14.563V13.23C14.0118 12.463 13.6138 11.789 13.0118 11.404ZM6.81781 1.06299C6.87391 1.0227 6.94124 1.00102 7.01031 1.00102C7.07938 1.00102 7.14671 1.0227 7.20281 1.06299L12.8418 5.06299H1.17981L6.81781 1.06299ZM12.0098 6.06299V11.069C11.9546 11.0647 11.8992 11.0627 11.8438 11.063H10.0098V6.06399L12.0098 6.06299ZM2.01181 11.069V6.06399H4.01181V11.064H2.17781C2.12181 11.064 2.06615 11.066 2.01081 11.07M2.17781 12.064H11.8448C12.4888 12.064 13.0108 12.586 13.0108 13.231V14.064H1.01181V13.231C1.01181 12.586 1.53381 12.064 2.17781 12.064ZM6.51181 11.064H5.01181V6.06399H6.51181V11.064ZM7.51181 11.064V6.06399H9.01181V11.064H7.51181Z" fill="hsl(218, 18%, 78%)"/>
</svg>
