<svg width="14" height="14" viewBox="0 0 14 14" fill="none" xmlns="http://www.w3.org/2000/svg">
<g id="dashboard-select" clip-path="url(#clip0_2091_1668)">
<path id="Vector" fill-rule="evenodd" clip-rule="evenodd" d="M1 0C0.734784 0 0.48043 0.105357 0.292893 0.292893C0.105357 0.48043 0 0.734784 0 1L0 7C0 7.26522 0.105357 7.51957 0.292893 7.70711C0.48043 7.89464 0.734784 8 1 8H5C5.26522 8 5.51957 7.89464 5.70711 7.70711C5.89464 7.51957 6 7.26522 6 7V1C6 0.734784 5.89464 0.48043 5.70711 0.292893C5.51957 0.105357 5.26522 0 5 0L1 0ZM8 1C8 0.734784 8.10536 0.48043 8.29289 0.292893C8.48043 0.105357 8.73478 0 9 0L13 0C13.2652 0 13.5196 0.105357 13.7071 0.292893C13.8946 0.48043 14 0.734784 14 1V3.01C14 3.27522 13.8946 3.52957 13.7071 3.71711C13.5196 3.90464 13.2652 4.01 13 4.01H9C8.73478 4.01 8.48043 3.90464 8.29289 3.71711C8.10536 3.52957 8 3.27522 8 3.01V1ZM8 7C8 6.73478 8.10536 6.48043 8.29289 6.29289C8.48043 6.10536 8.73478 6 9 6H13C13.2652 6 13.5196 6.10536 13.7071 6.29289C13.8946 6.48043 14 6.73478 14 7V13C14 13.2652 13.8946 13.5196 13.7071 13.7071C13.5196 13.8946 13.2652 14 13 14H9C8.73478 14 8.48043 13.8946 8.29289 13.7071C8.10536 13.5196 8 13.2652 8 13V7ZM0 10.99C0 10.7248 0.105357 10.4704 0.292893 10.2829C0.48043 10.0954 0.734784 9.99 1 9.99H5C5.26522 9.99 5.51957 10.0954 5.70711 10.2829C5.89464 10.4704 6 10.7248 6 10.99V13C6 13.2652 5.89464 13.5196 5.70711 13.7071C5.51957 13.8946 5.26522 14 5 14H1C0.734784 14 0.48043 13.8946 0.292893 13.7071C0.105357 13.5196 0 13.2652 0 13V10.99Z" fill="hsl(218, 80%, 65%)"/>
</g>
<defs>
<clipPath id="clip0_2091_1668">
<rect width="14" height="14" fill="white"/>
</clipPath>
</defs>
</svg>
