<svg width="36" height="30" viewBox="0 0 36 30" fill="none" xmlns="http://www.w3.org/2000/svg">
<g id="despesas">
<path id="Vector" d="M25.0148 9.38731C24.8392 8.97154 24.5136 8.61151 24.0828 8.35685C23.652 8.10219 23.1372 7.96545 22.6095 7.96547H20.6322C20.0726 7.96795 19.5336 8.14249 19.1181 8.45579C18.7027 8.76909 18.4399 9.19922 18.3798 9.66408C18.3198 10.1289 18.4668 10.596 18.7926 10.9761C19.1185 11.3562 19.6005 11.6228 20.1467 11.725L23.1551 12.2749C23.769 12.3882 24.3114 12.6867 24.6781 13.1133C25.0449 13.5399 25.2103 14.0646 25.1427 14.5868C25.0751 15.109 24.7793 15.592 24.3118 15.9432C23.8444 16.2944 23.2382 16.4892 22.6095 16.4902H20.9075C20.3799 16.49 19.8653 16.3531 19.4346 16.0985C19.0039 15.8439 18.6782 15.484 18.5023 15.0684M21.7585 7.96547V5.8327M21.7585 18.6209V16.4882" stroke="hsl(215, 12%, 55%)" stroke-width="2.7" stroke-linecap="round" stroke-linejoin="round"/>
<path id="Vector_2" d="M3.48247 13.3476C2.24566 15.2511 1.76437 17.4336 2.10798 19.5804C2.45159 21.7272 3.60235 23.7274 5.39436 25.2926C7.18636 26.8578 9.52704 27.9072 12.0789 28.2895C14.6308 28.6718 17.2621 28.3672 19.5935 27.4196M9.5169 12.2268C9.5169 14.9391 10.8066 17.5404 13.1024 19.4583C15.3981 21.3761 18.5118 22.4536 21.7584 22.4536C25.0051 22.4536 28.1188 21.3761 30.4145 19.4583C32.7103 17.5404 34 14.9391 34 12.2268C34 9.51449 32.7103 6.91326 30.4145 4.99536C28.1188 3.07746 25.0051 2 21.7584 2C18.5118 2 15.3981 3.07746 13.1024 4.99536C10.8066 6.91326 9.5169 9.51449 9.5169 12.2268Z" stroke="hsl(215, 12%, 55%)" stroke-width="2.7" stroke-linecap="round" stroke-linejoin="round"/>
</g>
</svg>
