<svg width="32" height="27" viewBox="0 0 32 27" fill="none" xmlns="http://www.w3.org/2000/svg">
<path id="despesas-select" fill-rule="evenodd" clip-rule="evenodd" d="M32 10.4845C32 11.8285 31.6794 13.1594 31.0564 14.4011C30.4334 15.6428 29.5203 16.771 28.3692 17.7213C27.2181 18.6717 25.8515 19.4256 24.3475 19.9399C22.8436 20.4542 21.2316 20.7189 19.6037 20.7189C17.9758 20.7189 16.3638 20.4542 14.8598 19.9399C13.3558 19.4256 11.9893 18.6717 10.8382 17.7213C9.68706 16.771 8.77396 15.6428 8.15098 14.4011C7.52801 13.1594 7.20737 11.8285 7.20737 10.4845C7.20737 7.77016 8.51341 5.16699 10.8382 3.24766C13.1629 1.32833 16.316 0.250061 19.6037 0.250061C22.8914 0.250061 26.0444 1.32833 28.3692 3.24766C30.694 5.16699 32 7.77016 32 10.4845ZM19.6049 2.75623C20.0794 2.75623 20.5345 2.91186 20.87 3.18887C21.2055 3.46588 21.394 3.84159 21.394 4.23335V4.85768C22.0797 4.99265 22.7135 5.26719 23.2377 5.65627C23.7619 6.04535 24.1597 6.53658 24.395 7.08517C24.5532 7.45472 24.527 7.86102 24.3224 8.21467C24.1177 8.56832 23.7512 8.84037 23.3036 8.97095C22.856 9.10154 22.3639 9.07997 21.9355 8.91099C21.5072 8.74201 21.1777 8.43947 21.0195 8.06991C20.9754 7.96646 20.8933 7.87692 20.7847 7.81374C20.6761 7.75056 20.5464 7.71688 20.4136 7.71737H18.5338C18.4401 7.71764 18.3497 7.74637 18.28 7.79808C18.2103 7.8498 18.166 7.92089 18.1557 7.9978C18.1454 8.07471 18.1697 8.15207 18.2241 8.21513C18.2784 8.27818 18.3589 8.32254 18.4503 8.33973L21.3153 8.85574C22.2486 9.02498 23.0848 9.45058 23.6871 10.063C24.2895 10.6754 24.6225 11.4384 24.6316 12.2272C24.6408 13.0161 24.3255 13.7842 23.7375 14.406C23.1494 15.0278 22.3232 15.4665 21.394 15.6505V16.2748C21.394 16.6666 21.2055 17.0423 20.87 17.3193C20.5345 17.5963 20.0794 17.7519 19.6049 17.7519C19.1304 17.7519 18.6753 17.5963 18.3398 17.3193C18.0042 17.0423 17.8157 16.6666 17.8157 16.2748V15.6505C17.1303 15.515 16.4968 15.2403 15.9727 14.8513C15.4486 14.4623 15.0506 13.9713 14.8148 13.423C14.7363 13.2401 14.7022 13.0463 14.7145 12.8526C14.7267 12.6588 14.7851 12.469 14.8862 12.2939C15.0904 11.9402 15.4565 11.668 15.9038 11.5372C16.3511 11.4063 16.843 11.4276 17.2714 11.5962C17.6997 11.7648 18.0294 12.067 18.1879 12.4363C18.2322 12.5398 18.3142 12.6294 18.4227 12.6929C18.5312 12.7563 18.6608 12.7905 18.7938 12.7908H20.416C20.5733 12.7889 20.7243 12.7395 20.8406 12.652C20.9568 12.5644 21.0302 12.4448 21.0469 12.3156C21.0637 12.1865 21.0226 12.0567 20.9314 11.9508C20.8402 11.845 20.7052 11.7704 20.5519 11.741L17.6869 11.225C16.7938 11.0635 15.9959 10.6518 15.4286 10.0598C14.8613 9.46776 14.5597 8.73192 14.5748 7.97715C14.59 7.22239 14.9211 6.49521 15.5118 5.91906C16.1026 5.34291 16.9166 4.95328 17.8157 4.81632V4.23335C17.8157 4.03937 17.862 3.84729 17.9519 3.66808C18.0418 3.48887 18.1736 3.32603 18.3398 3.18887C18.5059 3.05171 18.7031 2.9429 18.9202 2.86867C19.1373 2.79444 19.3699 2.75623 19.6049 2.75623ZM19.6049 23.1798C20.3826 23.1798 21.1483 23.1326 21.895 23.04C20.7922 24.1263 19.4281 25.0116 17.8892 25.6399C16.3503 26.2681 14.6701 26.6256 12.955 26.6896C11.24 26.7536 9.52756 26.5228 7.92624 26.0118C6.32492 25.5008 4.86964 24.7207 3.65262 23.721C2.43561 22.7213 1.48341 21.5238 0.85636 20.2043C0.229314 18.8849 -0.0589007 17.4722 0.00998179 16.056C0.0788643 14.6398 0.503342 13.2508 1.25651 11.9771C2.00968 10.7034 3.07512 9.57274 4.38531 8.65682C4.06763 10.4597 4.22365 12.2978 4.84278 14.0465C5.46192 15.7951 6.52966 17.4133 7.97347 18.791C9.41728 20.1688 11.2033 21.2738 13.2103 22.0311C15.2173 22.7884 17.3982 23.1801 19.6049 23.1798Z" fill="hsl(218, 32%, 67%)"/>
</svg>
