<svg width="36" height="30" viewBox="0 0 36 30" fill="none" xmlns="http://www.w3.org/2000/svg">
<g id="Despesas">
<path id="Vector" d="M25.0148 9.18732C24.8392 8.77156 24.5136 8.41153 24.0828 8.15687C23.652 7.90221 23.1372 7.76547 22.6095 7.76548H20.6322C20.0726 7.76796 19.5336 7.94251 19.1181 8.25581C18.7027 8.56911 18.4399 8.99923 18.3798 9.4641C18.3198 9.92896 18.4668 10.396 18.7926 10.7761C19.1185 11.1563 19.6005 11.4228 20.1467 11.525L23.1551 12.0749C23.769 12.1882 24.3114 12.4867 24.6781 12.9133C25.0449 13.3399 25.2103 13.8646 25.1427 14.3868C25.0751 14.909 24.7793 15.392 24.3118 15.7432C23.8444 16.0945 23.2382 16.2893 22.6095 16.2903H20.9075C20.3799 16.29 19.8653 16.1531 19.4346 15.8985C19.0039 15.6439 18.6782 15.284 18.5023 14.8684M21.7585 7.76548V5.63272M21.7585 18.4209V16.2882" stroke="black" stroke-width="2.5" stroke-linecap="round" stroke-linejoin="round"/>
<path id="Vector_2" d="M3.48247 13.1476C2.24566 15.0512 1.76437 17.2337 2.10798 19.3805C2.45159 21.5273 3.60235 23.5274 5.39436 25.0927C7.18636 26.6579 9.52704 27.7073 12.0789 28.0895C14.6308 28.4718 17.2621 28.1672 19.5935 27.2197M9.5169 12.0269C9.5169 14.7392 10.8066 17.3404 13.1024 19.2583C15.3981 21.1762 18.5118 22.2537 21.7584 22.2537C25.0051 22.2537 28.1188 21.1762 30.4145 19.2583C32.7103 17.3404 34 14.7392 34 12.0269C34 9.31454 32.7103 6.71331 30.4145 4.79541C28.1188 2.87751 25.0051 1.80005 21.7584 1.80005C18.5118 1.80005 15.3981 2.87751 13.1024 4.79541C10.8066 6.71331 9.5169 9.31454 9.5169 12.0269Z" stroke="black" stroke-width="2.5" stroke-linecap="round" stroke-linejoin="round"/>
</g>
</svg>
