<svg width="28" height="28" viewBox="0 0 28 28" fill="none" xmlns="http://www.w3.org/2000/svg">
<path d="M18.8533 1.56874C19.8584 0.564032 21.2214 -0.000262364 22.6426 9.1511e-08C24.0637 0.000262547 25.4265 0.56506 26.4313 1.57014C27.436 2.57523 28.0003 3.93826 28 5.3594C27.9997 6.78054 27.4349 8.14337 26.4299 9.14809L25.7749 9.80302L18.1984 2.22648L18.8533 1.56874ZM16.2196 4.20528L1.81938 18.6027C1.62502 18.7979 1.4926 19.0462 1.43874 19.3164L0.028107 26.3136C-0.0179137 26.5397 -0.00729229 26.7737 0.0590251 26.9948C0.125343 27.2158 0.245297 27.417 0.408207 27.5805C0.571116 27.744 0.771923 27.8646 0.992743 27.9317C1.21356 27.9987 1.44754 28.0101 1.67384 27.9649L8.68222 26.5655C8.95273 26.5108 9.20104 26.3774 9.39593 26.182L23.7961 11.7818L16.2196 4.20528Z" fill="hsl(218, 80%, 50%)"/>
</svg>
