<svg width="21" height="21" viewBox="0 0 21 21" fill="none" xmlns="http://www.w3.org/2000/svg">
<g id="editar">
<path id="Vector" d="M17.339 12.6909V17.1309C17.3388 17.7591 17.0891 18.3615 16.6449 18.8057C16.2007 19.2499 15.5983 19.4996 14.97 19.4999H3.36904C3.0568 19.4997 2.74765 19.4379 2.45938 19.3179C2.1711 19.198 1.90937 19.0222 1.68923 18.8008C1.46909 18.5793 1.29488 18.3166 1.17661 18.0276C1.05833 17.7386 0.998329 17.4291 1.00004 17.1169V5.52886C0.998184 5.2171 1.05822 4.90808 1.17666 4.6197C1.29511 4.33132 1.46961 4.06932 1.69006 3.84887C1.9105 3.62842 2.17251 3.45392 2.46089 3.33548C2.74927 3.21703 3.05829 3.157 3.37004 3.15886H7.80904" stroke="hsl(218, 85%, 55%)" stroke-width="1.5" stroke-linecap="round" stroke-linejoin="round"/>
<path id="Vector_2" d="M17.339 7.24486L13.254 3.15886M5.08398 14.0529V11.8879C5.08598 11.5309 5.22798 11.1879 5.47898 10.9349L15.011 1.40286C15.1376 1.27521 15.2882 1.17389 15.4542 1.10474C15.6202 1.0356 15.7982 1 15.978 1C16.1578 1 16.3358 1.0356 16.5018 1.10474C16.6677 1.17389 16.8184 1.27521 16.945 1.40286L19.096 3.55386C19.2239 3.68034 19.3254 3.83093 19.3947 3.99692C19.464 4.1629 19.4997 4.34099 19.4997 4.52086C19.4997 4.70073 19.464 4.87881 19.3947 5.0448C19.3254 5.21079 19.2239 5.36138 19.096 5.48786L9.56398 15.0199C9.31046 15.2715 8.96818 15.4134 8.61098 15.4149H6.44598C6.08476 15.4149 5.73833 15.2714 5.4829 15.0159C5.22748 14.7605 5.08398 14.4141 5.08398 14.0529Z" stroke="hsl(218, 85%, 55%)" stroke-width="1.5" stroke-linecap="round" stroke-linejoin="round"/>
</g>
</svg>
