<svg width="18" height="18" viewBox="0 0 18 18" fill="none" xmlns="http://www.w3.org/2000/svg">
<path id="equipe " d="M9 2C8.60218 2 8.22064 2.15804 7.93934 2.43934C7.65804 2.72064 7.5 3.10218 7.5 3.5C7.5 3.89782 7.65804 4.27936 7.93934 4.56066C8.22064 4.84196 8.60218 5 9 5C9.39782 5 9.77936 4.84196 10.0607 4.56066C10.342 4.27936 10.5 3.89782 10.5 3.5C10.5 3.10218 10.342 2.72064 10.0607 2.43934C9.77936 2.15804 9.39782 2 9 2ZM6.5 3.5C6.5 2.83696 6.76339 2.20107 7.23223 1.73223C7.70107 1.26339 8.33696 1 9 1C9.66304 1 10.2989 1.26339 10.7678 1.73223C11.2366 2.20107 11.5 2.83696 11.5 3.5C11.5 4.16304 11.2366 4.79893 10.7678 5.26777C10.2989 5.73661 9.66304 6 9 6C8.33696 6 7.70107 5.73661 7.23223 5.26777C6.76339 4.79893 6.5 4.16304 6.5 3.5ZM14.5 3C14.2348 3 13.9804 3.10536 13.7929 3.29289C13.6054 3.48043 13.5 3.73478 13.5 4C13.5 4.26522 13.6054 4.51957 13.7929 4.70711C13.9804 4.89464 14.2348 5 14.5 5C14.7652 5 15.0196 4.89464 15.2071 4.70711C15.3946 4.51957 15.5 4.26522 15.5 4C15.5 3.73478 15.3946 3.48043 15.2071 3.29289C15.0196 3.10536 14.7652 3 14.5 3ZM12.5 4C12.5 3.46957 12.7107 2.96086 13.0858 2.58579C13.4609 2.21071 13.9696 2 14.5 2C15.0304 2 15.5391 2.21071 15.9142 2.58579C16.2893 2.96086 16.5 3.46957 16.5 4C16.5 4.53043 16.2893 5.03914 15.9142 5.41421C15.5391 5.78929 15.0304 6 14.5 6C13.9696 6 13.4609 5.78929 13.0858 5.41421C12.7107 5.03914 12.5 4.53043 12.5 4ZM2.5 4C2.5 3.73478 2.60536 3.48043 2.79289 3.29289C2.98043 3.10536 3.23478 3 3.5 3C3.76522 3 4.01957 3.10536 4.20711 3.29289C4.39464 3.48043 4.5 3.73478 4.5 4C4.5 4.26522 4.39464 4.51957 4.20711 4.70711C4.01957 4.89464 3.76522 5 3.5 5C3.23478 5 2.98043 4.89464 2.79289 4.70711C2.60536 4.51957 2.5 4.26522 2.5 4ZM3.5 2C2.96957 2 2.46086 2.21071 2.08579 2.58579C1.71071 2.96086 1.5 3.46957 1.5 4C1.5 4.53043 1.71071 5.03914 2.08579 5.41421C2.46086 5.78929 2.96957 6 3.5 6C4.03043 6 4.53914 5.78929 4.91421 5.41421C5.28929 5.03914 5.5 4.53043 5.5 4C5.5 3.46957 5.28929 2.96086 4.91421 2.58579C4.53914 2.21071 4.03043 2 3.5 2ZM4.1 13.998L4 14C3.46957 14 2.96086 13.7893 2.58579 13.4142C2.21071 13.0391 2 12.5304 2 12V8.25C2 8.1837 2.02634 8.12011 2.07322 8.07322C2.12011 8.02634 2.1837 8 2.25 8H4.014C4.054 7.633 4.184 7.292 4.379 7H2.25C1.56 7 1 7.56 1 8.25V12C0.999953 12.4281 1.09154 12.8513 1.2686 13.2411C1.44566 13.6309 1.7041 13.9782 2.02655 14.2599C2.34901 14.5415 2.728 14.7508 3.13807 14.8738C3.54813 14.9968 3.97978 15.0307 4.404 14.973C4.26965 14.6592 4.16779 14.3325 4.1 13.998ZM13.596 14.973C13.728 14.991 13.8627 15 14 15C14.7956 15 15.5587 14.6839 16.1213 14.1213C16.6839 13.5587 17 12.7956 17 12V8.25C17 7.56 16.44 7 15.75 7H13.621C13.817 7.292 13.946 7.633 13.986 8H15.75C15.8163 8 15.8799 8.02634 15.9268 8.07322C15.9737 8.12011 16 8.1837 16 8.25V12C16.0001 12.2711 15.945 12.5394 15.8382 12.7886C15.7314 13.0377 15.575 13.2626 15.3786 13.4495C15.1822 13.6363 14.9498 13.7813 14.6956 13.8756C14.4415 13.9699 14.1708 14.0116 13.9 13.998C13.8322 14.3325 13.7303 14.6592 13.596 14.973ZM6.25 7C5.56 7 5 7.56 5 8.25V13C5 14.0609 5.42143 15.0783 6.17157 15.8284C6.92172 16.5786 7.93913 17 9 17C10.0609 17 11.0783 16.5786 11.8284 15.8284C12.5786 15.0783 13 14.0609 13 13V8.25C13 7.56 12.44 7 11.75 7H6.25ZM6 8.25C6 8.1837 6.02634 8.12011 6.07322 8.07322C6.12011 8.02634 6.1837 8 6.25 8H11.75C11.8163 8 11.8799 8.02634 11.9268 8.07322C11.9737 8.12011 12 8.1837 12 8.25V13C12 13.7956 11.6839 14.5587 11.1213 15.1213C10.5587 15.6839 9.79565 16 9 16C8.20435 16 7.44129 15.6839 6.87868 15.1213C6.31607 14.5587 6 13.7956 6 13V8.25Z" fill="hsl(218, 16%, 75%)" stroke="hsl(218, 16%, 75%)" stroke-width="0.3"/>
</svg>
