<svg width="22" height="24" viewBox="0 0 22 24" fill="none" xmlns="http://www.w3.org/2000/svg">
<path id="Vector" d="M11 0V2C4.955 2 0 6.955 0 13C0 19.045 4.955 24 11 24C17.045 24 22 19.045 22 13C22 10.053 20.89 7.39 18.906 5.406L17.5 6.813C19.117 8.428 20 10.546 20 13C20 17.955 15.955 22 11 22C6.045 22 2 17.955 2 13C2 8.045 6.045 4 11 4V6L16 3L11 0ZM13.094 6.563L10.594 11.563C10.2789 11.6487 10.0008 11.8359 9.80302 12.0958C9.60521 12.3556 9.4987 12.6734 9.5 13C9.5 13.3978 9.65804 13.7794 9.93934 14.0607C10.2206 14.342 10.6022 14.5 11 14.5H11.063L14.281 17.719L15.719 16.281L12.5 13.063V13C12.5 12.803 12.444 12.61 12.375 12.437L14.906 7.437L13.094 6.562V6.563Z" fill="hsl(220, 100%, 90%)"/>
</svg>
