<svg width="36" height="30" viewBox="0 0 36 30" fill="none" xmlns="http://www.w3.org/2000/svg">
<g id="Home">
<g id="Vector">
<path d="M2 15.4948C2 12.4676 2 10.9546 2.832 9.70092C3.6608 8.44586 5.1792 7.66823 8.2144 6.11033L11.4144 4.46911C14.6224 2.8226 16.2272 2 18 2C19.7728 2 21.376 2.8226 24.5856 4.46911L27.7856 6.11033C30.8208 7.66823 32.3392 8.44586 33.1696 9.70092C34 10.9546 34 12.4676 34 15.4935V17.5063C34 22.6641 34 25.2443 32.1248 26.8471C30.2512 28.45 27.2336 28.45 21.2 28.45H14.8C8.7664 28.45 5.7488 28.45 3.8752 26.8471C2 25.2443 2 22.6654 2 17.5063V15.4948Z" stroke="url(#paint0_linear_629_1680)" stroke-width="2.5"/>
<path d="M2 15.4948C2 12.4676 2 10.9546 2.832 9.70092C3.6608 8.44586 5.1792 7.66823 8.2144 6.11033L11.4144 4.46911C14.6224 2.8226 16.2272 2 18 2C19.7728 2 21.376 2.8226 24.5856 4.46911L27.7856 6.11033C30.8208 7.66823 32.3392 8.44586 33.1696 9.70092C34 10.9546 34 12.4676 34 15.4935V17.5063C34 22.6641 34 25.2443 32.1248 26.8471C30.2512 28.45 27.2336 28.45 21.2 28.45H14.8C8.7664 28.45 5.7488 28.45 3.8752 26.8471C2 25.2443 2 22.6654 2 17.5063V15.4948Z" stroke="black" stroke-opacity="0.15" stroke-width="2.5"/>
</g>
<g id="Vector_2">
<path d="M18 19.1925V23.16" stroke="url(#paint1_linear_629_1680)" stroke-width="4" stroke-linecap="round"/>
<path d="M18 19.1925V23.16" stroke="black" stroke-opacity="0.15" stroke-width="4" stroke-linecap="round"/>
</g>
</g>
<defs>
<linearGradient id="paint0_linear_629_1680" x1="2" y1="1.54999" x2="34" y2="28.55" gradientUnits="userSpaceOnUse">
<stop stop-color="#7A44E7"/>
<stop offset="1" stop-color="#5CE1E6"/>
</linearGradient>
<linearGradient id="paint1_linear_629_1680" x1="18" y1="19.125" x2="19.6606" y2="19.4169" gradientUnits="userSpaceOnUse">
<stop stop-color="#7A44E7"/>
<stop offset="1" stop-color="#5CE1E6"/>
</linearGradient>
</defs>
</svg>
