<svg width="32" height="27" viewBox="0 0 32 27" fill="none" xmlns="http://www.w3.org/2000/svg">
<path id="home-select" fill-rule="evenodd" clip-rule="evenodd" d="M0.832 8.15093C0 9.40334 0 10.9176 0 13.9435V15.9563C0 21.1141 -2.38419e-07 23.6943 1.8752 25.2971C3.7488 26.9 6.7664 26.9 12.8 26.9H19.2C25.2336 26.9 28.2512 26.9 30.1248 25.2971C32 23.6943 32 21.1154 32 15.9563V13.9448C32 10.9176 32 9.40466 31.168 8.15093C30.3392 6.89588 28.8208 6.11825 25.7856 4.56034L22.5856 2.91912C19.3776 1.27261 17.7728 0.450012 16 0.450012C14.2272 0.450012 12.624 1.27261 9.4144 2.91912L6.2144 4.56034C3.1792 6.11825 1.6624 6.89588 0.832 8.15093ZM14.8 21.61C14.8 21.8731 14.9264 22.1254 15.1515 22.3114C15.3765 22.4974 15.6817 22.6019 16 22.6019C16.3183 22.6019 16.6235 22.4974 16.8485 22.3114C17.0736 22.1254 17.2 21.8731 17.2 21.61V17.6425C17.2 17.3794 17.0736 17.1272 16.8485 16.9412C16.6235 16.7551 16.3183 16.6506 16 16.6506C15.6817 16.6506 15.3765 16.7551 15.1515 16.9412C14.9264 17.1272 14.8 17.3794 14.8 17.6425V21.61Z" fill="hsl(218, 80%, 55%)"/>
</svg>
