<svg width="21" height="21" viewBox="0 0 21 21" fill="none" xmlns="http://www.w3.org/2000/svg">
<path id="identifica&#195;&#167;&#195;&#163;o" d="M7.635 1C4.969 1.06 3.412 1.314 2.348 2.375C1.416 3.303 1.105 4.607 1 6.7M13.366 1C16.032 1.06 17.589 1.314 18.653 2.375C19.585 3.303 19.896 4.607 20 6.7M13.366 20C16.032 19.94 17.589 19.685 18.653 18.625C19.585 17.697 19.896 16.392 20 14.3M7.635 20C4.969 19.94 3.412 19.685 2.348 18.625C1.416 17.697 1.105 16.392 1.001 14.3M6.5 15.5C8.338 12.905 12.619 12.763 14.5 15.5M13 8C13 8.66304 12.7366 9.29893 12.2678 9.76777C11.7989 10.2366 11.163 10.5 10.5 10.5C9.83696 10.5 9.20107 10.2366 8.73223 9.76777C8.26339 9.29893 8 8.66304 8 8C8 7.33696 8.26339 6.70107 8.73223 6.23223C9.20107 5.76339 9.83696 5.5 10.5 5.5C11.163 5.5 11.7989 5.76339 12.2678 6.23223C12.7366 6.70107 13 7.33696 13 8Z" stroke="#DFE3EC" stroke-width="1.5" stroke-linecap="round" stroke-linejoin="round"/>
</svg>
