<svg width="32" height="35" viewBox="0 0 32 35" fill="none" xmlns="http://www.w3.org/2000/svg">
<g id="incluir-contato">
<path id="Vector" d="M16.9509 34.0127L16.9317 34.0159L16.8181 34.0719L16.7861 34.0783L16.7637 34.0719L16.6501 34.0143C16.633 34.01 16.6202 34.0132 16.6117 34.0239L16.6053 34.0399L16.5781 34.7247L16.5861 34.7567L16.6021 34.7775L16.7685 34.8959L16.7925 34.9023L16.8117 34.8959L16.9781 34.7775L16.9973 34.7519L17.0037 34.7247L16.9765 34.0415C16.9722 34.0244 16.9637 34.0148 16.9509 34.0127ZM17.3733 33.8319L17.3509 33.8351L17.0565 33.9839L17.0405 33.9999L17.0357 34.0175L17.0645 34.7055L17.0725 34.7247L17.0853 34.7375L17.4069 34.8847C17.4271 34.89 17.4426 34.8857 17.4533 34.8719L17.4597 34.8495L17.4053 33.8671C17.3999 33.8468 17.3893 33.8351 17.3733 33.8319ZM16.2293 33.8351C16.2222 33.8308 16.2138 33.8294 16.2057 33.8312C16.1977 33.833 16.1906 33.8378 16.1861 33.8447L16.1765 33.8671L16.1221 34.8495C16.1231 34.8687 16.1322 34.8815 16.1493 34.8879L16.1733 34.8847L16.4949 34.7359L16.5109 34.7231L16.5157 34.7055L16.5445 34.0175L16.5397 33.9983L16.5237 33.9823L16.2293 33.8351Z" fill="#1A64E6"/>
<path id="Vector_2" d="M6.4 8C6.4 5.87827 7.24285 3.84344 8.74315 2.34315C10.2434 0.842855 12.2783 0 14.4 0C16.5217 0 18.5566 0.842855 20.0569 2.34315C21.5571 3.84344 22.4 5.87827 22.4 8C22.4 10.1217 21.5571 12.1566 20.0569 13.6569C18.5566 15.1571 16.5217 16 14.4 16C12.2783 16 10.2434 15.1571 8.74315 13.6569C7.24285 12.1566 6.4 10.1217 6.4 8ZM4.5152 20.2752C7.08 18.7104 10.568 17.6 14.4 17.6C15.1157 17.6 15.8176 17.6373 16.5056 17.712C16.7804 17.7415 17.0429 17.8417 17.2675 18.0028C17.4921 18.1639 17.6712 18.3804 17.7872 18.6313C17.9032 18.8822 17.9522 19.1589 17.9295 19.4343C17.9068 19.7098 17.8131 19.9747 17.6576 20.2032C16.5739 21.794 15.9961 23.6751 16 25.6C16 27.072 16.3312 28.464 16.92 29.7072C17.0347 29.9494 17.0868 30.2165 17.0714 30.4841C17.056 30.7516 16.9736 31.011 16.8319 31.2384C16.6901 31.4659 16.4935 31.6541 16.2601 31.7857C16.0267 31.9174 15.764 31.9883 15.496 31.992L14.4 32C10.8336 32 7.464 31.776 4.9392 31.1072C3.6832 30.7744 2.5008 30.2976 1.6048 29.5776C0.656 28.816 0 27.752 0 26.4C0 25.1408 0.5728 23.9632 1.3504 22.9776C2.1408 21.9776 3.2336 21.0576 4.5152 20.2736V20.2752ZM25.6 19.2C26.0243 19.2 26.4313 19.3686 26.7314 19.6686C27.0314 19.9687 27.2 20.3757 27.2 20.8V24H30.4C30.8243 24 31.2313 24.1686 31.5314 24.4686C31.8314 24.7687 32 25.1757 32 25.6C32 26.0243 31.8314 26.4313 31.5314 26.7314C31.2313 27.0314 30.8243 27.2 30.4 27.2H27.2V30.4C27.2 30.8243 27.0314 31.2313 26.7314 31.5314C26.4313 31.8314 26.0243 32 25.6 32C25.1757 32 24.7687 31.8314 24.4686 31.5314C24.1686 31.2313 24 30.8243 24 30.4V27.2H20.8C20.3757 27.2 19.9687 27.0314 19.6686 26.7314C19.3686 26.4313 19.2 26.0243 19.2 25.6C19.2 25.1757 19.3686 24.7687 19.6686 24.4686C19.9687 24.1686 20.3757 24 20.8 24H24V20.8C24 20.3757 24.1686 19.9687 24.4686 19.6686C24.7687 19.3686 25.1757 19.2 25.6 19.2Z" fill="#1A64E6"/>
</g>
</svg>
