<svg width="21" height="21" viewBox="0 0 21 21" fill="none" xmlns="http://www.w3.org/2000/svg">
<g id="info_complementar">
<path id="Vector" d="M10.5 21C4.71 21 0 16.29 0 10.5C0 4.71 4.71 0 10.5 0C16.29 0 21 4.71 21 10.5C21 16.29 16.29 21 10.5 21ZM10.5 1.5C5.535 1.5 1.5 5.535 1.5 10.5C1.5 15.465 5.535 19.5 10.5 19.5C15.465 19.5 19.5 15.465 19.5 10.5C19.5 5.535 15.465 1.5 10.5 1.5Z" fill="hsl(218, 88%, 88%)"/>
<path id="Vector_2" d="M10.5 8.625C11.1213 8.625 11.625 8.12132 11.625 7.5C11.625 6.87868 11.1213 6.375 10.5 6.375C9.87868 6.375 9.375 6.87868 9.375 7.5C9.375 8.12132 9.87868 8.625 10.5 8.625Z" fill="hsl(218, 88%, 88%)"/>
<path id="Vector_3" d="M10.5 16.5C10.08 16.5 9.75 16.17 9.75 15.75V11.25C9.75 10.83 10.08 10.5 10.5 10.5C10.92 10.5 11.25 10.83 11.25 11.25V15.75C11.25 16.17 10.92 16.5 10.5 16.5Z" fill="hsl(218, 88%, 88%)"/>
</g>
</svg>
