<svg width="23" height="22" viewBox="0 0 23 22" fill="none" xmlns="http://www.w3.org/2000/svg">
<g id="list">
<path id="Vector" d="M8 1.25C7.58579 1.25 7.25 1.58579 7.25 2V5C7.25 5.41421 7.58579 5.75 8 5.75H16C16.4142 5.75 16.75 5.41421 16.75 5V2C16.75 1.58579 16.4142 1.25 16 1.25H8ZM8 8.75C7.58579 8.75 7.25 9.08579 7.25 9.5V12.5C7.25 12.9142 7.58579 13.25 8 13.25H18C18.4142 13.25 18.75 12.9142 18.75 12.5V9.5C18.75 9.08579 18.4142 8.75 18 8.75H8ZM8 16.25C7.58579 16.25 7.25 16.5858 7.25 17V20C7.25 20.4142 7.58579 20.75 8 20.75H21C21.4142 20.75 21.75 20.4142 21.75 20V17C21.75 16.5858 21.4142 16.25 21 16.25H8Z" stroke="#B2B8BD" stroke-width="1.5" stroke-linecap="round" stroke-linejoin="round"/>
<path id="Vector_2" d="M3 5.25C3.9665 5.25 4.75 4.4665 4.75 3.5C4.75 2.5335 3.9665 1.75 3 1.75C2.0335 1.75 1.25 2.5335 1.25 3.5C1.25 4.4665 2.0335 5.25 3 5.25Z" stroke="#B2B8BD" stroke-width="1.5"/>
<path id="Vector_3" d="M3 12.75C3.9665 12.75 4.75 11.9665 4.75 11C4.75 10.0335 3.9665 9.25 3 9.25C2.0335 9.25 1.25 10.0335 1.25 11C1.25 11.9665 2.0335 12.75 3 12.75Z" stroke="#B2B8BD" stroke-width="1.5"/>
<path id="Vector_4" d="M3 20.25C3.9665 20.25 4.75 19.4665 4.75 18.5C4.75 17.5335 3.9665 16.75 3 16.75C2.0335 16.75 1.25 17.5335 1.25 18.5C1.25 19.4665 2.0335 20.25 3 20.25Z" stroke="#B2B8BD" stroke-width="1.5"/>
</g>
</svg>
