<svg width="21" height="24" viewBox="0 0 21 24" fill="none" xmlns="http://www.w3.org/2000/svg">
<path id="notifica&#195;&#167;&#195;&#163;o" d="M21 5.14286C21 7.34858 19.1683 9.14286 16.9167 9.14286C14.665 9.14286 12.8333 7.34858 12.8333 5.14286C12.8333 2.93715 14.665 1.14286 16.9167 1.14286C19.1683 1.14286 21 2.93715 21 5.14286ZM18.6667 11.1886C18.0833 11.3371 17.5 11.4286 16.9167 11.4286C15.2158 11.4256 13.5855 10.7623 12.3828 9.5842C11.1801 8.40605 10.5031 6.80901 10.5 5.14286C10.5 3.46286 11.1767 1.94286 12.25 0.811434C12.0383 0.557195 11.7713 0.352429 11.4686 0.212056C11.1658 0.0716836 10.8349 -0.000759434 10.5 6.00307e-06C9.21667 6.00307e-06 8.16667 1.02858 8.16667 2.28572V2.61715C4.70167 3.62286 2.33333 6.74286 2.33333 10.2857V17.1429L0 19.4286V20.5714H21V19.4286L18.6667 17.1429V11.1886ZM10.5 24C11.795 24 12.8333 22.9829 12.8333 21.7143H8.16667C8.16667 22.3205 8.4125 22.9019 8.85008 23.3305C9.28767 23.7592 9.88116 24 10.5 24Z" fill="hsl(220, 50%, 80%)"/>
</svg>
