<svg width="22" height="24" viewBox="0 0 22 24" fill="none" xmlns="http://www.w3.org/2000/svg">
<path id="Vector" d="M11 0L6 3L11 6V4C15.955 4 20 8.045 20 13C20 17.955 15.955 22 11 22C6.045 22 2 17.955 2 13C2 10.547 2.883 8.43 4.5 6.812L3.094 5.407C1.11 7.39 0 10.053 0 13C0 19.045 4.955 24 11 24C17.045 24 22 19.045 22 13C22 6.955 17.045 2 11 2V0ZM8.906 6.563L7.094 7.438L9.625 12.438C9.54835 12.6158 9.50594 12.8065 9.5 13V13.063L6.281 16.28L7.72 17.72L10.939 14.501H11C11.3978 14.501 11.7794 14.343 12.0607 14.0617C12.342 13.7804 12.5 13.3988 12.5 13.001C12.5 12.311 12.041 11.738 11.406 11.563L8.906 6.563Z" fill="hsl(217, 12%, 85%)"/>
</svg>
