<svg width="30" height="30" viewBox="0 0 30 30" fill="none" xmlns="http://www.w3.org/2000/svg">
<g id="phone">
<g id="Vector" filter="url(#filter0_d_2179_1674)">
<path d="M18.6665 7.33331L23.5554 2.44446L18.6665 7.33331ZM23.5554 2.44446V6.1111V2.44446ZM23.5554 2.44446H19.8887H23.5554Z" fill="hsl(120, 100%, 50%)"/>
<path d="M18.6665 7.33331L23.5554 2.44446M23.5554 2.44446V6.1111M23.5554 2.44446H19.8887" stroke="hsl(120, 100%, 50%)" stroke-width="1.5" stroke-linecap="round" stroke-linejoin="round"/>
</g>
<g id="Vector_2" opacity="0.5" filter="url(#filter1_d_2179_1674)">
<mask id="path-3-inside-1_2179_1674" fill="white">
<path d="M19.3459 14.1142L18.7898 14.7009C18.7898 14.7009 17.4662 16.093 13.8545 12.2906C10.2429 8.48834 11.5666 7.09624 11.5666 7.09624L11.9173 6.7259C12.7802 5.81658 12.8621 4.35725 12.108 3.29148L10.568 1.11227C9.63423 -0.207717 7.83147 -0.381272 6.76203 0.744388L4.84437 2.76226C4.31516 3.32082 3.96071 4.04314 4.00349 4.84614C4.11349 6.89946 4.99104 11.3153 9.88479 16.4694C15.0755 21.9327 19.9461 22.1502 21.937 21.9535C22.5677 21.8924 23.1153 21.5514 23.5565 21.0869L25.292 19.2585C26.4653 18.0241 26.1353 15.9096 24.6345 15.0467L22.3 13.7023C21.3149 13.1364 20.1159 13.3026 19.3459 14.113"/>
</mask>
<path d="M19.3459 14.1142L18.7898 14.7009C18.7898 14.7009 17.4662 16.093 13.8545 12.2906C10.2429 8.48834 11.5666 7.09624 11.5666 7.09624L11.9173 6.7259C12.7802 5.81658 12.8621 4.35725 12.108 3.29148L10.568 1.11227C9.63423 -0.207717 7.83147 -0.381272 6.76203 0.744388L4.84437 2.76226C4.31516 3.32082 3.96071 4.04314 4.00349 4.84614C4.11349 6.89946 4.99104 11.3153 9.88479 16.4694C15.0755 21.9327 19.9461 22.1502 21.937 21.9535C22.5677 21.8924 23.1153 21.5514 23.5565 21.0869L25.292 19.2585C26.4653 18.0241 26.1353 15.9096 24.6345 15.0467L22.3 13.7023C21.3149 13.1364 20.1159 13.3026 19.3459 14.113" fill="hsl(120, 100%, 50%)"/>
<path d="M18.7898 14.7009L19.5145 15.3899L19.5156 15.3888L18.7898 14.7009ZM11.5666 7.09624L12.2913 7.7853L12.2926 7.78391L11.5666 7.09624ZM11.9173 6.7259L11.1919 6.03757L11.1913 6.03823L11.9173 6.7259ZM12.108 3.29148L11.2913 3.8686L11.2917 3.86908L12.108 3.29148ZM10.568 1.11227L11.3847 0.535159L11.3844 0.53476L10.568 1.11227ZM6.76203 0.744388L7.48691 1.43326L7.48701 1.43316L6.76203 0.744388ZM4.84437 2.76226L4.11949 2.07339L4.11846 2.07448L4.84437 2.76226ZM4.00349 4.84614L3.00491 4.89934L3.00492 4.89963L4.00349 4.84614ZM9.88479 16.4694L9.1596 17.158L9.15983 17.1582L9.88479 16.4694ZM21.937 21.9535L21.8406 20.9581L21.8387 20.9583L21.937 21.9535ZM23.5565 21.0869L24.2815 21.7757L24.2818 21.7754L23.5565 21.0869ZM25.292 19.2585L24.5672 18.5696L24.5667 18.57L25.292 19.2585ZM24.6345 15.0467L24.1354 15.9133L24.136 15.9137L24.6345 15.0467ZM22.3 13.7023L22.7991 12.8357L22.7981 12.8352L22.3 13.7023ZM18.6202 13.4262L18.0641 14.0129L19.5156 15.3888L20.0717 14.8021L18.6202 13.4262ZM18.7898 14.7009C18.0651 14.0118 18.0661 14.0108 18.067 14.0099C18.0673 14.0096 18.0682 14.0086 18.0688 14.008C18.07 14.0067 18.0712 14.0055 18.0723 14.0043C18.0747 14.0019 18.077 13.9995 18.0793 13.9972C18.0838 13.9927 18.0881 13.9884 18.0923 13.9844C18.1006 13.9764 18.1082 13.9695 18.1151 13.9635C18.1288 13.9514 18.1397 13.943 18.1478 13.9373C18.1642 13.9256 18.1689 13.925 18.1601 13.9285C18.1507 13.9322 18.0547 13.97 17.8371 13.9346C17.3712 13.8588 16.3249 13.4394 14.5796 11.602L13.1295 12.9793C14.9958 14.9442 16.4172 15.7299 17.516 15.9086C18.0808 16.0005 18.5414 15.9279 18.893 15.7894C19.0647 15.7218 19.2011 15.6421 19.304 15.5692C19.3553 15.5329 19.3982 15.4982 19.4331 15.4677C19.4506 15.4524 19.466 15.4381 19.4796 15.425C19.4864 15.4185 19.4926 15.4123 19.4985 15.4064C19.5014 15.4035 19.5042 15.4007 19.5069 15.3979C19.5082 15.3965 19.5095 15.3952 19.5108 15.3938C19.5114 15.3932 19.5124 15.3922 19.5127 15.3919C19.5136 15.3909 19.5145 15.3899 18.7898 14.7009ZM14.5796 11.602C12.8402 9.77073 12.4235 8.65486 12.3456 8.12271C12.3082 7.86735 12.3471 7.73981 12.3582 7.70876C12.3648 7.69022 12.3677 7.68899 12.3588 7.70286C12.3544 7.70965 12.3473 7.72001 12.3364 7.73377C12.3309 7.74065 12.3245 7.7484 12.3171 7.75698C12.3133 7.76128 12.3093 7.76578 12.305 7.7705C12.3029 7.77286 12.3007 7.77528 12.2984 7.77774C12.2972 7.77898 12.296 7.78022 12.2949 7.78148C12.2943 7.78211 12.2934 7.78307 12.2931 7.78338C12.2922 7.78434 12.2912 7.7853 11.5666 7.09624C10.8419 6.40717 10.8409 6.40814 10.84 6.40912C10.8397 6.40945 10.8388 6.41044 10.8381 6.41111C10.8369 6.41246 10.8356 6.41383 10.8343 6.41524C10.8317 6.41804 10.829 6.42097 10.8262 6.42401C10.8206 6.4301 10.8148 6.43666 10.8087 6.44371C10.7964 6.45779 10.783 6.47382 10.7687 6.49182C10.7402 6.52784 10.7082 6.57182 10.6747 6.62409C10.6075 6.72895 10.5352 6.86618 10.4742 7.03756C10.3499 7.38636 10.2836 7.84449 10.3667 8.41244C10.5299 9.52692 11.2572 11.0083 13.1295 12.9793L14.5796 11.602ZM12.2926 7.78391L12.6433 7.41358L11.1913 6.03823L10.8405 6.40856L12.2926 7.78391ZM12.6427 7.41424C13.853 6.13879 13.9379 4.14641 12.9243 2.71388L11.2917 3.86908C11.7863 4.56809 11.7074 5.49436 11.1919 6.03757L12.6427 7.41424ZM12.9247 2.71437L11.3847 0.535159L9.75134 1.68939L11.2913 3.8686L12.9247 2.71437ZM11.3844 0.53476C10.1163 -1.25784 7.57518 -1.56338 6.03705 0.0556176L7.48701 1.43316C8.08775 0.800836 9.15218 0.842408 9.75162 1.68979L11.3844 0.53476ZM6.03715 0.0555113L4.1195 2.07339L5.56925 3.45114L7.48691 1.43326L6.03715 0.0555113ZM4.11846 2.07448C3.45343 2.77636 2.9439 3.75409 3.00491 4.89934L5.00207 4.79294C4.97753 4.33219 5.17688 3.86527 5.57028 3.45005L4.11846 2.07448ZM3.00492 4.89963C3.12705 7.17938 4.09467 11.8236 9.1596 17.158L10.61 15.7808C5.88741 10.8071 5.09993 6.61953 5.00206 4.79264L3.00492 4.89963ZM9.15983 17.1582C14.594 22.8777 19.785 23.171 22.0354 22.9486L21.8387 20.9583C20.1071 21.1295 15.5571 20.9877 10.6097 15.7806L9.15983 17.1582ZM22.0335 22.9488C22.9754 22.8575 23.7318 22.3542 24.2815 21.7757L22.8315 20.3982C22.4987 20.7485 22.16 20.9272 21.8406 20.9581L22.0335 22.9488ZM24.2818 21.7754L26.0173 19.9469L24.5667 18.57L22.8312 20.3985L24.2818 21.7754ZM26.0168 19.9474C27.6518 18.2273 27.1759 15.3544 25.1329 14.1798L24.136 15.9137C25.0948 16.4649 25.2789 17.8208 24.5672 18.5696L26.0168 19.9474ZM25.1335 14.1802L22.7991 12.8357L21.801 14.5689L24.1354 15.9133L25.1335 14.1802ZM22.7981 12.8352C21.423 12.0452 19.7166 12.2712 18.621 13.4241L20.0709 14.8018C20.5153 14.3341 21.2069 14.2276 21.8019 14.5694L22.7981 12.8352Z" fill="hsl(120, 100%, 50%)" mask="url(#path-3-inside-1_2179_1674)"/>
</g>
</g>
<defs>
<filter id="filter0_d_2179_1674" x="13.9165" y="1.69446" width="14.3887" height="14.3889" filterUnits="userSpaceOnUse" color-interpolation-filters="sRGB">
<feFlood flood-opacity="0" result="BackgroundImageFix"/>
<feColorMatrix in="SourceAlpha" type="matrix" values="0 0 0 0 0 0 0 0 0 0 0 0 0 0 0 0 0 0 127 0" result="hardAlpha"/>
<feOffset dy="4"/>
<feGaussianBlur stdDeviation="2"/>
<feComposite in2="hardAlpha" operator="out"/>
<feColorMatrix type="matrix" values="0 0 0 0 0 0 0 0 0 0 0 0 0 0 0 0 0 0 0.25 0"/>
<feBlend mode="normal" in2="BackgroundImageFix" result="effect1_dropShadow_2179_1674"/>
<feBlend mode="normal" in="SourceGraphic" in2="effect1_dropShadow_2179_1674" result="shape"/>
</filter>
<filter id="filter1_d_2179_1674" x="0" y="0" width="30" height="29.9987" filterUnits="userSpaceOnUse" color-interpolation-filters="sRGB">
<feFlood flood-opacity="0" result="BackgroundImageFix"/>
<feColorMatrix in="SourceAlpha" type="matrix" values="0 0 0 0 0 0 0 0 0 0 0 0 0 0 0 0 0 0 127 0" result="hardAlpha"/>
<feOffset dy="4"/>
<feGaussianBlur stdDeviation="2"/>
<feComposite in2="hardAlpha" operator="out"/>
<feColorMatrix type="matrix" values="0 0 0 0 0 0 0 0 0 0 0 0 0 0 0 0 0 0 0.25 0"/>
<feBlend mode="normal" in2="BackgroundImageFix" result="effect1_dropShadow_2179_1674"/>
<feBlend mode="normal" in="SourceGraphic" in2="effect1_dropShadow_2179_1674" result="shape"/>
</filter>
</defs>
</svg>
