<svg width="30" height="30" viewBox="0 0 30 30" fill="none" xmlns="http://www.w3.org/2000/svg">
<g id="phone" filter="url(#filter0_d_2012_1685)">
<path id="Vector" d="M18.6665 9.33331L23.5554 4.44446M23.5554 4.44446V8.1111M23.5554 4.44446H19.8887" stroke="#A1A1A1" stroke-width="1.5" stroke-linecap="round" stroke-linejoin="round"/>
<g id="Vector_2" opacity="0.5" filter="url(#filter1_i_2012_1685)">
<path d="M19.3459 16.1142L18.7898 16.7009C18.7898 16.7009 17.4662 18.093 13.8545 14.2906C10.2429 10.4883 11.5666 9.09623 11.5666 9.09623L11.9173 8.7259C12.7802 7.81658 12.8621 6.35725 12.108 5.29148L10.568 3.11227C9.63423 1.79228 7.83147 1.61873 6.76203 2.74439L4.84437 4.76226C4.31516 5.32082 3.96071 6.04314 4.00349 6.84614C4.11349 8.89946 4.99104 13.3153 9.88479 18.4694C15.0755 23.9327 19.9461 24.1502 21.937 23.9535C22.5677 23.8924 23.1153 23.5514 23.5565 23.0869L25.292 21.2585C26.4653 20.0241 26.1353 17.9096 24.6345 17.0467L22.3 15.7023C21.3149 15.1364 20.1159 15.3026 19.3459 16.113" fill="#01C409"/>
</g>
</g>
<defs>
<filter id="filter0_d_2012_1685" x="0" y="0" width="30" height="29.9987" filterUnits="userSpaceOnUse" color-interpolation-filters="sRGB">
<feFlood flood-opacity="0" result="BackgroundImageFix"/>
<feColorMatrix in="SourceAlpha" type="matrix" values="0 0 0 0 0 0 0 0 0 0 0 0 0 0 0 0 0 0 127 0" result="hardAlpha"/>
<feOffset dy="2"/>
<feGaussianBlur stdDeviation="2"/>
<feComposite in2="hardAlpha" operator="out"/>
<feColorMatrix type="matrix" values="0 0 0 0 0 0 0 0 0 0 0 0 0 0 0 0 0 0 0.25 0"/>
<feBlend mode="normal" in2="BackgroundImageFix" result="effect1_dropShadow_2012_1685"/>
<feBlend mode="normal" in="SourceGraphic" in2="effect1_dropShadow_2012_1685" result="shape"/>
</filter>
<filter id="filter1_i_2012_1685" x="4" y="2" width="22" height="25.9987" filterUnits="userSpaceOnUse" color-interpolation-filters="sRGB">
<feFlood flood-opacity="0" result="BackgroundImageFix"/>
<feBlend mode="normal" in="SourceGraphic" in2="BackgroundImageFix" result="shape"/>
<feColorMatrix in="SourceAlpha" type="matrix" values="0 0 0 0 0 0 0 0 0 0 0 0 0 0 0 0 0 0 127 0" result="hardAlpha"/>
<feOffset dy="4"/>
<feGaussianBlur stdDeviation="2"/>
<feComposite in2="hardAlpha" operator="arithmetic" k2="-1" k3="1"/>
<feColorMatrix type="matrix" values="0 0 0 0 0.0358259 0 0 0 0 0.249948 0 0 0 0 0.180031 0 0 0 0.4 0"/>
<feBlend mode="normal" in2="shape" result="effect1_innerShadow_2012_1685"/>
</filter>
</defs>
</svg>
