<svg width="32" height="27" viewBox="0 0 32 27" fill="none" xmlns="http://www.w3.org/2000/svg">
<path id="Pleitos" d="M21.3333 0.350037H3.55556C2.61256 0.350037 1.70819 0.659669 1.0414 1.21082C0.374602 1.76197 0 2.50948 0 3.28893V23.8611C0 24.6406 0.374602 25.3881 1.0414 25.9393C1.70819 26.4904 2.61256 26.8 3.55556 26.8H28.4444C29.3874 26.8 30.2918 26.4904 30.9586 25.9393C31.6254 25.3881 32 24.6406 32 23.8611V9.1667L21.3333 0.350037ZM28.4444 23.8611H3.55556V3.28893H19.5556V10.6361H28.4444M24.8889 16.5139H7.11111V13.575H24.8889M19.5556 20.9223H7.11111V17.9834H19.5556" fill="black"/>
</svg>
