<svg width="32" height="27" viewBox="0 0 32 27" fill="none" xmlns="http://www.w3.org/2000/svg">
<path id="Pleitos" d="M21.3333 0H3.55556C2.61256 0 1.70819 0.309632 1.0414 0.860781C0.374602 1.41193 0 2.15945 0 2.93889V23.5111C0 24.2906 0.374602 25.0381 1.0414 25.5892C1.70819 26.1404 2.61256 26.45 3.55556 26.45H28.4444C29.3874 26.45 30.2918 26.1404 30.9586 25.5892C31.6254 25.0381 32 24.2906 32 23.5111V8.81667L21.3333 0ZM28.4444 23.5111H3.55556V2.93889H19.5556V10.2861H28.4444M24.8889 16.1639H7.11111V13.225H24.8889M19.5556 20.5722H7.11111V17.6333H19.5556" fill="#73848C"/>
</svg>
