<svg width="32" height="32" viewBox="0 0 32 32" fill="none" xmlns="http://www.w3.org/2000/svg">
<path fill-rule="evenodd" clip-rule="evenodd" d="M1.54845 22.187C1.95912 22.187 2.35297 22.3501 2.64336 22.6405C2.93375 22.9309 3.09689 23.3247 3.09689 23.7354V28.3869C3.09689 28.6718 3.32813 28.9031 3.61304 28.9031H28.3882C28.5251 28.9031 28.6563 28.8487 28.7531 28.7519C28.8499 28.6551 28.9043 28.5238 28.9043 28.3869V23.7354C28.9043 23.3247 29.0675 22.9309 29.3578 22.6405C29.6482 22.3501 30.0421 22.187 30.4528 22.187C30.8634 22.187 31.2573 22.3501 31.5477 22.6405C31.8381 22.9309 32.0012 23.3247 32.0012 23.7354V28.3869C32.0012 29.3452 31.6205 30.2642 30.943 30.9417C30.2654 31.6193 29.3464 32 28.3882 32H3.61304C2.6548 32 1.73581 31.6193 1.05823 30.9417C0.380659 30.2642 0 29.3452 0 28.3869V23.7354C0 23.3247 0.163139 22.9309 0.453529 22.6405C0.743919 22.3501 1.13777 22.187 1.54845 22.187Z" fill="hsl(218, 80%, 50%)"/>
<path fill-rule="evenodd" clip-rule="evenodd" d="M16.4181 2.74469C16.8287 2.74469 17.2226 2.90783 17.513 3.19822C17.8034 3.48861 17.9665 3.88246 17.9665 4.29314V20.9874C17.9665 21.3981 17.8034 21.792 17.513 22.0824C17.2226 22.3728 16.8287 22.5359 16.4181 22.5359C16.0074 22.5359 15.6135 22.3728 15.3232 22.0824C15.0328 21.792 14.8696 21.3981 14.8696 20.9874V4.2952C14.8696 3.88453 15.0328 3.49067 15.3232 3.20028C15.6135 2.90989 16.0074 2.74469 16.4181 2.74469Z" fill="hsl(218, 80%, 50%)"/>
<path fill-rule="evenodd" clip-rule="evenodd" d="M15.3354 0.440615C15.6247 0.158137 16.013 0 16.4173 0C16.8216 0 17.2099 0.158137 17.4991 0.440615L24.4031 7.18358C24.6908 7.47183 24.8534 7.86181 24.8556 8.26905C24.8578 8.6763 24.6994 9.06801 24.4149 9.35935C24.1303 9.65069 23.7425 9.81821 23.3353 9.82561C22.9281 9.83301 22.5344 9.6797 22.2394 9.39889L16.4173 3.713L10.5951 9.39889C10.4503 9.544 10.2781 9.6589 10.0885 9.73693C9.89896 9.81497 9.69577 9.85458 9.49077 9.85348C9.28576 9.85237 9.08302 9.81056 8.89429 9.73048C8.70557 9.65041 8.53463 9.53365 8.39138 9.38699C8.24814 9.24033 8.13544 9.06668 8.05984 8.87612C7.98423 8.68556 7.94721 8.48189 7.95094 8.27691C7.95466 8.07194 7.99906 7.86974 8.08154 7.68206C8.16402 7.49438 8.28295 7.32494 8.43143 7.18358L15.3354 0.440615Z" fill="hsl(218, 80%, 50%)"/>
</svg>
