<svg width="32" height="32" viewBox="0 0 32 32" fill="none" xmlns="http://www.w3.org/2000/svg">
<path id="Vector" fill-rule="evenodd" clip-rule="evenodd" d="M27.0085 0.223775C27.6708 -0.0175687 28.3882 -0.0648365 29.0765 0.0875266C29.7648 0.23989 30.3952 0.585552 30.8938 1.08389C31.3924 1.58222 31.7384 2.21252 31.891 2.90071C32.0437 3.5889 31.9968 4.30637 31.7558 4.96881L23.5868 29.4528C23.3881 30.0545 23.0383 30.5951 22.5709 31.0229C22.1034 31.4507 21.534 31.7514 20.9172 31.8962C20.3018 32.0461 19.658 32.0335 19.0489 31.8596C18.4399 31.6857 17.8865 31.3565 17.443 30.9042L13.0591 26.5409L8.45575 28.9226C8.27929 29.0141 8.08201 29.058 7.8834 29.0499C7.68479 29.0419 7.49172 28.9822 7.32324 28.8767C7.15475 28.7712 7.0167 28.6236 6.92269 28.4485C6.82869 28.2733 6.78199 28.0767 6.78721 27.878L6.97692 20.6005L23.0794 8.90472C23.2313 8.79441 23.36 8.65527 23.4581 8.49524C23.5562 8.33521 23.6218 8.15742 23.6512 7.97202C23.6806 7.78663 23.6732 7.59726 23.6294 7.41473C23.5856 7.23219 23.5063 7.06008 23.396 6.9082C23.2857 6.75632 23.1465 6.62765 22.9865 6.52954C22.8265 6.43144 22.6487 6.36581 22.4633 6.33642C22.2779 6.30702 22.0885 6.31443 21.906 6.35822C21.7235 6.40201 21.5513 6.48132 21.3995 6.59163L5.02497 18.4862L1.07077 14.532C0.644615 14.1058 0.330431 13.5808 0.156169 13.0037C-0.0180928 12.4267 -0.0470288 11.8156 0.0719353 11.2247C0.191549 10.5787 0.480894 9.9761 0.910277 9.47883C1.33966 8.98157 1.89362 8.6075 2.51531 8.39502H2.52217L27.0062 0.221489L27.0085 0.223775Z" fill="hsl(218, 80%, 50%)"/>
</svg>
