<svg width="28" height="26" viewBox="0 0 28 26" fill="none" xmlns="http://www.w3.org/2000/svg">
  <defs>
    <linearGradient id="gradient10" x1="0%" y1="0%" x2="100%" y2="100%" gradientTransform="rotate(135)">
      <stop offset="0%" stop-color="hsl(218, 80%, 85%)" />
      <stop offset="100%" stop-color="hsl(218, 80%, 85%)" />
    </linearGradient>
  </defs>
  <path id="Vector" fill-rule="evenodd" clip-rule="evenodd" d="M25.56 2.52258C25.825 2.23823 25.9692 1.86214 25.9624 1.47354C25.9555 1.08494 25.7981 0.714166 25.5232 0.43934C25.2484 0.164514 24.8776 0.00709013 24.489 0.000233694C24.1004 -0.00662274 23.7244 0.137624 23.44 0.402584L12.324 11.5166L8.578 7.64458C8.44133 7.50177 8.27778 7.38739 8.09675 7.308C7.91572 7.22861 7.72078 7.18578 7.52315 7.18198C7.32551 7.17818 7.12908 7.21348 6.94513 7.28585C6.76118 7.35822 6.59336 7.46624 6.45129 7.60368C6.30923 7.74113 6.19574 7.90531 6.11734 8.08677C6.03894 8.26823 5.99717 8.46339 5.99445 8.66105C5.99173 8.8587 6.0281 9.05494 6.10147 9.23849C6.17485 9.42204 6.28378 9.58927 6.422 9.73058L11.228 14.6986C11.3663 14.842 11.5317 14.9564 11.7147 15.0352C11.8977 15.114 12.0946 15.1555 12.2938 15.1574C12.493 15.1592 12.6906 15.1214 12.8751 15.0461C13.0595 14.9707 13.2271 14.8594 13.368 14.7186L25.56 2.52258ZM3 15.1626C3 14.7648 2.84196 14.3832 2.56066 14.1019C2.27936 13.8206 1.89782 13.6626 1.5 13.6626C1.10218 13.6626 0.720644 13.8206 0.43934 14.1019C0.158035 14.3832 5.92805e-09 14.7648 0 15.1626V19.6626C0 21.2539 0.632141 22.78 1.75736 23.9052C2.88258 25.0304 4.4087 25.6626 6 25.6626H22C23.5913 25.6626 25.1174 25.0304 26.2426 23.9052C27.3679 22.78 28 21.2539 28 19.6626V15.1626C28 14.7648 27.842 14.3832 27.5607 14.1019C27.2794 13.8206 26.8978 13.6626 26.5 13.6626C26.1022 13.6626 25.7206 13.8206 25.4393 14.1019C25.158 14.3832 25 14.7648 25 15.1626V19.6626C25 20.4582 24.6839 21.2213 24.1213 21.7839C23.5587 22.3465 22.7956 22.6626 22 22.6626H6C5.20435 22.6626 4.44129 22.3465 3.87868 21.7839C3.31607 21.2213 3 20.4582 3 19.6626V15.1626Z" fill="url(#gradient10)"/>
</svg>
