<svg width="19" height="22" viewBox="0 0 19 22" fill="none" xmlns="http://www.w3.org/2000/svg">
<g id="ver">
<path id="Vector" d="M17 10.5V6L12.5 1H2C1.73478 1 1.48043 1.10536 1.29289 1.29289C1.10536 1.48043 1 1.73478 1 2V20C1 20.2652 1.10536 20.5196 1.29289 20.7071C1.48043 20.8946 1.73478 21 2 21H8" stroke="#22C358" stroke-width="2" stroke-linecap="round" stroke-linejoin="round"/>
<path id="Vector_2" d="M13.5 19.5C15.985 19.5 18 16.5 18 16.5C18 16.5 15.985 13.5 13.5 13.5C11.015 13.5 9 16.5 9 16.5C9 16.5 11.015 19.5 13.5 19.5Z" stroke="#22C358" stroke-width="2" stroke-linejoin="round"/>
<path id="Vector_3" d="M13.5 17.5C13.7652 17.5 14.0196 17.3946 14.2071 17.2071C14.3946 17.0196 14.5 16.7652 14.5 16.5C14.5 16.2348 14.3946 15.9804 14.2071 15.7929C14.0196 15.6054 13.7652 15.5 13.5 15.5C13.2348 15.5 12.9804 15.6054 12.7929 15.7929C12.6054 15.9804 12.5 16.2348 12.5 16.5C12.5 16.7652 12.6054 17.0196 12.7929 17.2071C12.9804 17.3946 13.2348 17.5 13.5 17.5Z" fill="#22C358"/>
<path id="Vector_4" d="M12 1V6H17" stroke="#22C358" stroke-width="2" stroke-linecap="round" stroke-linejoin="round"/>
</g>
</svg>
