<svg width="19" height="16" viewBox="0 0 19 16" fill="none" xmlns="http://www.w3.org/2000/svg">
<path id="Vector" d="M1.28298 6.94C1.00208 7.22125 0.844299 7.60249 0.844299 8C0.844299 8.3975 1.00208 8.77875 1.28298 9.06L6.93898 14.718C7.07831 14.8573 7.24372 14.9679 7.42577 15.0433C7.60782 15.1187 7.80293 15.1575 7.99998 15.1575C8.19703 15.1575 8.39214 15.1187 8.57419 15.0433C8.75624 14.9679 8.92165 14.8573 9.06098 14.718C9.20031 14.5787 9.31084 14.4133 9.38624 14.2312C9.46165 14.0492 9.50046 13.854 9.50046 13.657C9.50046 13.4599 9.46165 13.2648 9.38624 13.0828C9.31084 12.9007 9.20031 12.7353 9.06098 12.596L5.96498 9.5H17.5C17.8978 9.5 18.2793 9.34196 18.5606 9.06066C18.8419 8.77935 19 8.39782 19 8C19 7.60217 18.8419 7.22064 18.5606 6.93934C18.2793 6.65803 17.8978 6.5 17.5 6.5H5.96498L9.06098 3.404C9.34224 3.1226 9.5002 2.741 9.50011 2.34314C9.50001 1.94528 9.34187 1.56376 9.06048 1.2825C8.77909 1.00123 8.39748 0.843275 7.99963 0.843369C7.60177 0.843462 7.22024 1.0016 6.93898 1.283L1.28298 6.94Z" fill="#CAC6C6"/>
</svg>
