<svg width="19" height="16" viewBox="0 0 19 16" fill="none" xmlns="http://www.w3.org/2000/svg">
<path id="Vector" d="M1.28292 6.94001C1.00202 7.22126 0.844238 7.60251 0.844238 8.00001C0.844238 8.39751 1.00202 8.77876 1.28292 9.06001L6.93892 14.718C7.07825 14.8573 7.24366 14.9679 7.42571 15.0433C7.60776 15.1187 7.80287 15.1575 7.99992 15.1575C8.19696 15.1575 8.39208 15.1187 8.57413 15.0433C8.75617 14.9679 8.92159 14.8573 9.06092 14.718C9.20025 14.5787 9.31077 14.4133 9.38618 14.2312C9.46159 14.0492 9.5004 13.8541 9.5004 13.657C9.5004 13.46 9.46159 13.2648 9.38618 13.0828C9.31077 12.9008 9.20025 12.7353 9.06092 12.596L5.96492 9.50001H17.4999C17.8977 9.50001 18.2793 9.34198 18.5606 9.06067C18.8419 8.77937 18.9999 8.39784 18.9999 8.00001C18.9999 7.60219 18.8419 7.22066 18.5606 6.93935C18.2793 6.65805 17.8977 6.50001 17.4999 6.50001H5.96492L9.06092 3.40401C9.34218 3.12262 9.50014 2.74102 9.50005 2.34316C9.49995 1.9453 9.34181 1.56377 9.06042 1.28251C8.77902 1.00125 8.39742 0.84329 7.99956 0.843384C7.60171 0.843478 7.22018 1.00162 6.93892 1.28301L1.28292 6.94001Z" fill="#9DADBF"/>
</svg>
