<svg width="32" height="33" viewBox="0 0 32 33" fill="none" xmlns="http://www.w3.org/2000/svg">
<g id="whatsapp-icon">
<path id="Vector" d="M0.682949 15.932C0.682199 18.6416 1.3902 21.2874 2.73645 23.6194L0.554199 31.5871L8.7082 29.4491C10.9635 30.6769 13.4904 31.3202 16.0582 31.3204H16.0649C24.5418 31.3204 31.4422 24.4225 31.4458 15.9441C31.4474 11.8358 29.849 7.97252 26.9447 5.06602C24.041 2.15977 20.1791 0.558394 16.0643 0.556519C7.58645 0.556519 0.686574 7.45402 0.683074 15.932" fill="url(#paint0_linear_2288_1659)"/>
<path id="Vector_2" d="M0.13375 15.927C0.132875 18.7341 0.86625 21.4745 2.2605 23.89L0 32.1434L8.44637 29.9287C10.7736 31.1976 13.3939 31.8666 16.0601 31.8676H16.067C24.848 31.8676 31.9963 24.7216 32 15.9397C32.0015 11.6837 30.3455 7.68162 27.3375 4.671C24.3291 1.66075 20.3291 0.00175 16.067 0C7.2845 0 0.13725 7.145 0.13375 15.927ZM5.16388 23.474L4.8485 22.9734C3.52275 20.8654 2.823 18.4294 2.824 15.928C2.82675 8.62863 8.76725 2.69 16.072 2.69C19.6095 2.6915 22.934 4.0705 25.4345 6.5725C27.9349 9.07475 29.3108 12.401 29.3099 15.9388C29.3066 23.2381 23.366 29.1775 16.067 29.1775H16.0618C13.6851 29.1762 11.3542 28.538 9.3215 27.3319L8.83775 27.045L3.8255 28.3591L5.16388 23.474Z" fill="url(#paint1_linear_2288_1659)"/>
<path id="Vector_3" d="M12.0849 9.26855C11.7867 8.60567 11.4728 8.5923 11.1892 8.58067C10.9569 8.57067 10.6914 8.57142 10.4262 8.57142C10.1607 8.57142 9.72932 8.6713 9.36469 9.06942C8.99969 9.46792 7.97119 10.4309 7.97119 12.3895C7.97119 14.3482 9.39782 16.2412 9.59669 16.507C9.79582 16.7724 12.3508 20.9204 16.3973 22.5162C19.7603 23.8423 20.4447 23.5785 21.1746 23.512C21.9046 23.4458 23.5301 22.5493 23.8617 21.6197C24.1936 20.6902 24.1936 19.8934 24.0941 19.7269C23.9946 19.561 23.7291 19.4614 23.3309 19.2624C22.9328 19.0634 20.9754 18.1002 20.6106 17.9673C20.2456 17.8345 19.9802 17.7683 19.7147 18.1669C19.4492 18.5649 18.6868 19.4614 18.4544 19.7269C18.2223 19.993 17.9899 20.0262 17.5919 19.827C17.1936 19.6273 15.9114 19.2074 14.3903 17.8513C13.2068 16.796 12.4078 15.4929 12.1756 15.0943C11.9433 14.6963 12.1507 14.4805 12.3503 14.2822C12.5292 14.1038 12.7486 13.8173 12.9478 13.5849C13.1463 13.3524 13.2126 13.1865 13.3453 12.921C13.4782 12.6553 13.4117 12.4228 13.3123 12.2237C13.2126 12.0245 12.4389 10.0557 12.0849 9.26855Z" fill="white"/>
</g>
<defs>
<linearGradient id="paint0_linear_2288_1659" x1="1545.14" y1="3103.62" x2="1545.14" y2="0.556519" gradientUnits="userSpaceOnUse">
<stop stop-color="#1FAF38"/>
<stop offset="1" stop-color="#60D669"/>
</linearGradient>
<linearGradient id="paint1_linear_2288_1659" x1="1600" y1="3214.34" x2="1600" y2="0" gradientUnits="userSpaceOnUse">
<stop stop-color="#F9F9F9"/>
<stop offset="1" stop-color="white"/>
</linearGradient>
</defs>
</svg>
