<svg width="17" height="17" viewBox="0 0 17 17" fill="none" xmlns="http://www.w3.org/2000/svg">
<g id="mapas">
<path id="Vector" fill-rule="evenodd" clip-rule="evenodd" d="M8.11963 8C8.78267 8 9.41855 7.73661 9.8874 7.26777C10.3562 6.79893 10.6196 6.16304 10.6196 5.5C10.6196 4.83696 10.3562 4.20107 9.8874 3.73223C9.41855 3.26339 8.78267 3 8.11963 3C7.45659 3 6.8207 3.26339 6.35186 3.73223C5.88302 4.20107 5.61963 4.83696 5.61963 5.5C5.61963 6.16304 5.88302 6.79893 6.35186 7.26777C6.8207 7.73661 7.45659 8 8.11963 8ZM8.11963 5C8.25224 5 8.37941 5.05268 8.47318 5.14645C8.56695 5.24021 8.61963 5.36739 8.61963 5.5C8.61963 5.63261 8.56695 5.75979 8.47318 5.85355C8.37941 5.94732 8.25224 6 8.11963 6C7.98702 6 7.85984 5.94732 7.76608 5.85355C7.67231 5.75979 7.61963 5.63261 7.61963 5.5C7.61963 5.36739 7.67231 5.24021 7.76608 5.14645C7.85984 5.05268 7.98702 5 8.11963 5Z" fill="hsl(263, 72%, 56%)"/>
<path id="Vector_2" fill-rule="evenodd" clip-rule="evenodd" d="M3.11963 5.286C3.11963 8.199 5.92463 13 8.11963 13C10.3146 13 13.1196 8.199 13.1196 5.286C13.1196 2.38 10.8966 0 8.11963 0C5.34263 0 3.11963 2.381 3.11963 5.286ZM11.1196 5.286C11.1196 7.24 8.92263 11 8.11963 11C7.31663 11 5.11963 7.24 5.11963 5.286C5.11963 3.456 6.47963 2 8.11963 2C9.75963 2 11.1196 3.456 11.1196 5.286Z" fill="hsl(263, 72%, 56%)"/>
<path id="Vector_3" d="M11.8495 8C11.5842 8 11.3299 7.89464 11.1424 7.70711C10.9548 7.51957 10.8495 7.26522 10.8495 7C10.8495 6.73478 10.9548 6.48043 11.1424 6.29289C11.3299 6.10536 11.5842 6 11.8495 6C12.5051 6.00012 13.1426 6.21499 13.6645 6.61175C14.1864 7.00851 14.564 7.56532 14.7395 8.197L16.1295 13.197C16.2533 13.6427 16.2724 14.1111 16.1852 14.5654C16.098 15.0197 15.9069 15.4477 15.6269 15.8159C15.3469 16.1842 14.9855 16.4827 14.571 16.6881C14.1565 16.8935 13.7001 17.0002 13.2375 17H2.99947C2.53702 16.9999 2.08086 16.8929 1.66661 16.6874C1.25236 16.4819 0.891227 16.1833 0.611429 15.8151C0.331631 15.4469 0.140739 15.0191 0.053663 14.5649C-0.0334127 14.1107 -0.0143147 13.6426 0.109465 13.197L1.49847 8.197C1.67399 7.56516 2.05172 7.00823 2.57383 6.61145C3.09595 6.21467 3.73369 5.9999 4.38947 6C4.65468 6 4.90904 6.10536 5.09657 6.29289C5.28411 6.48043 5.38947 6.73478 5.38947 7C5.38947 7.26522 5.28411 7.51957 5.09657 7.70711C4.90904 7.89464 4.65468 8 4.38947 8C4.17103 8.00009 3.95864 8.0717 3.78474 8.20389C3.61084 8.33607 3.48501 8.52156 3.42647 8.732L2.03647 13.732C1.99511 13.8807 1.98872 14.0369 2.01781 14.1885C2.04689 14.34 2.11066 14.4828 2.20412 14.6056C2.29758 14.7284 2.4182 14.8279 2.55653 14.8963C2.69485 14.9648 2.84714 15.0002 3.00147 15H13.2395C13.3936 14.9999 13.5457 14.9642 13.6838 14.8957C13.8218 14.8271 13.9422 14.7276 14.0354 14.6048C14.1287 14.482 14.1922 14.3394 14.2212 14.188C14.2502 14.0366 14.2438 13.8805 14.2025 13.732L12.8135 8.732C12.7549 8.52139 12.6289 8.33578 12.4548 8.20358C12.2807 8.07138 12.0681 7.99987 11.8495 8Z" fill="hsl(263, 72%, 56%)"/>
</g>
</svg>
