<svg width="22" height="22" viewBox="0 0 22 22" fill="none" xmlns="http://www.w3.org/2000/svg">
<g id="Group">
<path id="Vector" d="M16 11C16 11.9889 15.7068 12.9556 15.1574 13.7779C14.6079 14.6001 13.827 15.241 12.9134 15.6194C11.9998 15.9978 10.9945 16.0969 10.0246 15.9039C9.05465 15.711 8.16373 15.2348 7.46447 14.5355C6.76521 13.8363 6.289 12.9454 6.09608 11.9755C5.90315 11.0055 6.00217 10.0002 6.3806 9.08658C6.75904 8.17295 7.39991 7.39206 8.22215 6.84265C9.0444 6.29324 10.0111 6 11 6" stroke="#7A44E7" stroke-width="1.5" stroke-linecap="round" stroke-linejoin="round"/>
<path id="Vector_2" d="M13 1.2C12.3533 1.068 11.6867 1.00133 11 1C5.477 1 1 5.477 1 11C1 16.523 5.477 21 11 21C16.523 21 21 16.523 21 11C20.9987 10.3133 20.932 9.64667 20.8 9" stroke="#7A44E7" stroke-width="1.5" stroke-linecap="round" stroke-linejoin="round"/>
<path id="Vector_3" d="M11.0298 10.962L15.5828 6.40896M18.7398 3.34496L18.1868 1.35696C18.1647 1.28123 18.1242 1.21211 18.0691 1.15573C18.0139 1.09934 17.9456 1.05743 17.8704 1.0337C17.7951 1.00997 17.7152 1.00515 17.6377 1.01968C17.5601 1.0342 17.4873 1.06761 17.4258 1.11696C15.9898 2.28996 14.4258 3.87096 15.7028 6.36396C18.2768 7.56396 19.7468 5.94596 20.8728 4.58496C20.9237 4.52228 20.9582 4.44788 20.9732 4.36851C20.9882 4.28914 20.9831 4.20729 20.9585 4.13036C20.9339 4.05343 20.8905 3.98385 20.8322 3.92791C20.7739 3.87197 20.7027 3.83143 20.6248 3.80996L18.7398 3.34496Z" stroke="#7A44E7" stroke-width="1.5" stroke-linecap="round" stroke-linejoin="round"/>
</g>
</svg>
