<svg width="32" height="32" viewBox="0 0 32 32" fill="none" xmlns="http://www.w3.org/2000/svg">
<g id="oraganograma-select">
<path id="Vector" d="M8.71128 16.7111H23.2891V19.4489H24.7113V15.2889H16.7113V12.4445H15.2891V15.2889H7.28906V19.4489H8.71128V16.7111Z" fill="hsl(220, 85%, 88%)"/>
<path id="Vector_2" d="M12.4445 20.4445H3.55561C2.57377 20.4445 1.77783 21.2404 1.77783 22.2222V27.5556C1.77783 28.5374 2.57377 29.3333 3.55561 29.3333H12.4445C13.4263 29.3333 14.2223 28.5374 14.2223 27.5556V22.2222C14.2223 21.2404 13.4263 20.4445 12.4445 20.4445Z" fill="hsl(220, 85%, 88%)"/>
<path id="Vector_3" d="M28.4445 20.4445H19.5556C18.5738 20.4445 17.7778 21.2404 17.7778 22.2222V27.5556C17.7778 28.5374 18.5738 29.3333 19.5556 29.3333H28.4445C29.4263 29.3333 30.2223 28.5374 30.2223 27.5556V22.2222C30.2223 21.2404 29.4263 20.4445 28.4445 20.4445Z" fill="hsl(220, 85%, 88%)"/>
<path id="Vector_4" d="M20.4445 2.66663H11.5556C10.5738 2.66663 9.77783 3.46256 9.77783 4.4444V9.77774C9.77783 10.7596 10.5738 11.5555 11.5556 11.5555H20.4445C21.4263 11.5555 22.2223 10.7596 22.2223 9.77774V4.4444C22.2223 3.46256 21.4263 2.66663 20.4445 2.66663Z" fill="hsl(220, 85%, 88%)"/>
</g>
</svg>
