<svg width="21" height="21" viewBox="0 0 21 21" fill="none" xmlns="http://www.w3.org/2000/svg">
<g id="Group">
<path id="Vector" d="M1 6.687C1.104 4.587 1.415 3.277 2.347 2.347C3.277 1.415 4.587 1.104 6.687 1M20 6.687C19.896 4.587 19.585 3.277 18.653 2.347C17.723 1.415 16.413 1.104 14.313 1M14.313 20C16.413 19.896 17.723 19.585 18.653 18.653C19.585 17.723 19.896 16.413 20 14.313M6.687 20C4.587 19.896 3.277 19.585 2.347 18.653C1.415 17.723 1.104 16.413 1 14.313M18.135 9.818C18.378 10.122 18.5 10.275 18.5 10.5C18.5 10.725 18.378 10.878 18.135 11.182C17.042 12.55 14.251 15.5 10.5 15.5C6.749 15.5 3.958 12.55 2.865 11.182C2.622 10.878 2.5 10.725 2.5 10.5C2.5 10.275 2.622 10.122 2.865 9.818C3.958 8.45 6.749 5.5 10.5 5.5C14.251 5.5 17.042 8.45 18.135 9.818Z" stroke="#7A44E7" stroke-linecap="round" stroke-linejoin="round"/>
<path id="Vector_2" d="M12.5 10.5C12.5 9.96957 12.2893 9.46086 11.9142 9.08579C11.5391 8.71071 11.0304 8.5 10.5 8.5C9.96957 8.5 9.46086 8.71071 9.08579 9.08579C8.71071 9.46086 8.5 9.96957 8.5 10.5C8.5 11.0304 8.71071 11.5391 9.08579 11.9142C9.46086 12.2893 9.96957 12.5 10.5 12.5C11.0304 12.5 11.5391 12.2893 11.9142 11.9142C12.2893 11.5391 12.5 11.0304 12.5 10.5Z" stroke="#7A44E7" stroke-linecap="round" stroke-linejoin="round"/>
</g>
</svg>
