<svg width="10" height="14" viewBox="0 0 10 14" fill="none" xmlns="http://www.w3.org/2000/svg">
<path d="M0.4435 2.1455L6.33616 7.00656L0.4435 11.8676C0.302894 11.9836 0.191359 12.1213 0.115263 12.2729C0.0391674 12.4244 0 12.5868 0 12.7509C0 12.9149 0.0391674 13.0773 0.115263 13.2289C0.191359 13.3804 0.302894 13.5182 0.4435 13.6341C0.584106 13.7501 0.751031 13.8421 0.934742 13.9049C1.11845 13.9677 1.31535 14 1.5142 14C1.71305 14 1.90995 13.9677 2.09366 13.9049C2.27737 13.8421 2.4443 13.7501 2.5849 13.6341L9.55586 7.88356C9.69665 7.76765 9.80835 7.62998 9.88456 7.47842C9.96077 7.32686 10 7.16438 10 7.0003C10 6.83622 9.96077 6.67374 9.88456 6.52218C9.80835 6.37062 9.69665 6.23295 9.55586 6.11704L2.5849 0.366458C1.9926 -0.122153 1.0358 -0.122153 0.4435 0.366458C-0.133616 0.85507 -0.148804 1.65689 0.4435 2.1455Z" fill="black"/>
</svg>
