<svg width="36" height="30" viewBox="0 0 36 30" fill="none" xmlns="http://www.w3.org/2000/svg">
<path id="Contatos" d="M26.3004 19.9489C27.0681 19.459 27.9685 19.1823 28.8975 19.1507C29.8265 19.119 30.7461 19.3338 31.5499 19.7701C32.3537 20.2064 33.0089 20.8465 33.4396 21.6162C33.8703 22.3859 34.059 23.2538 33.9839 24.1195C32.0149 24.7625 29.9235 25.0127 27.8447 24.854C27.8383 23.1162 27.3027 21.4144 26.3004 19.9504C25.4108 18.6467 24.1837 17.5738 22.7325 16.8309C21.2813 16.0879 19.653 15.699 17.9983 15.7C16.3439 15.6992 14.7159 16.0883 13.265 16.8312C11.8142 17.5742 10.5873 18.647 9.69783 19.9504M27.843 24.8525L27.8447 24.9C27.8447 25.245 27.825 25.5854 27.784 25.9212C24.806 27.5176 21.4316 28.3551 17.9983 28.35C14.4372 28.35 11.0944 27.4668 8.21267 25.9212C8.17048 25.5663 8.1502 25.2095 8.15195 24.8525M8.15195 24.8525C6.07376 25.0169 3.9835 24.7677 2.01602 24.1211C1.94111 23.2556 2.1299 22.388 2.56057 21.6185C2.99124 20.8491 3.6462 20.2092 4.44972 19.773C5.25324 19.3367 6.1725 19.1219 7.10121 19.1533C8.02992 19.1847 8.93016 19.461 9.69783 19.9504M8.15195 24.8525C8.15784 23.1148 8.69616 21.4145 9.69783 19.9504M22.9215 6.50002C22.9215 7.72002 22.4028 8.89004 21.4795 9.75271C20.5563 10.6154 19.304 11.1 17.9983 11.1C16.6926 11.1 15.4404 10.6154 14.5171 9.75271C13.5938 8.89004 13.0751 7.72002 13.0751 6.50002C13.0751 5.28003 13.5938 4.11 14.5171 3.24733C15.4404 2.38467 16.6926 1.90002 17.9983 1.90002C19.304 1.90002 20.5563 2.38467 21.4795 3.24733C22.4028 4.11 22.9215 5.28003 22.9215 6.50002ZM32.7679 11.1C32.7679 11.5531 32.6724 12.0017 32.4868 12.4203C32.3012 12.8388 32.0293 13.2192 31.6864 13.5395C31.3435 13.8599 30.9365 14.114 30.4885 14.2874C30.0405 14.4608 29.5604 14.55 29.0755 14.55C28.5906 14.55 28.1104 14.4608 27.6625 14.2874C27.2145 14.114 26.8074 13.8599 26.4646 13.5395C26.1217 13.2192 25.8497 12.8388 25.6641 12.4203C25.4786 12.0017 25.3831 11.5531 25.3831 11.1C25.3831 10.185 25.7721 9.3075 26.4646 8.6605C27.157 8.0135 28.0962 7.65002 29.0755 7.65002C30.0548 7.65002 30.9939 8.0135 31.6864 8.6605C32.3788 9.3075 32.7679 10.185 32.7679 11.1ZM10.6135 11.1C10.6135 11.5531 10.518 12.0017 10.3325 12.4203C10.1469 12.8388 9.87493 13.2192 9.53206 13.5395C9.1892 13.8599 8.78215 14.114 8.33417 14.2874C7.88619 14.4608 7.40604 14.55 6.92115 14.55C6.43626 14.55 5.95612 14.4608 5.50814 14.2874C5.06016 14.114 4.65311 13.8599 4.31024 13.5395C3.96737 13.2192 3.69539 12.8388 3.50983 12.4203C3.32427 12.0017 3.22877 11.5531 3.22877 11.1C3.22877 10.185 3.61779 9.3075 4.31024 8.6605C5.0027 8.0135 5.94187 7.65002 6.92115 7.65002C7.90044 7.65002 8.83961 8.0135 9.53206 8.6605C10.2245 9.3075 10.6135 10.185 10.6135 11.1Z" stroke="black" stroke-width="2.5" stroke-linecap="round" stroke-linejoin="round"/>
</svg>
