<svg width="32" height="27" viewBox="0 0 32 27" fill="none" xmlns="http://www.w3.org/2000/svg">
<path fill-rule="evenodd" clip-rule="evenodd" d="M7.07153 0.450012C7.42673 0.450012 7.76738 0.571037 8.01854 0.786462C8.2697 1.00189 8.4108 1.29407 8.4108 1.59873V4.15346C13.4603 3.76776 18.5397 3.76776 23.5892 4.15346V1.59873C23.5892 1.29407 23.7303 1.00189 23.9814 0.786462C24.2326 0.571037 24.5732 0.450012 24.9284 0.450012C25.2836 0.450012 25.6243 0.571037 25.8754 0.786462C26.1266 1.00189 26.2677 1.29407 26.2677 1.59873V4.38014C27.5704 4.5386 28.7769 5.05837 29.7029 5.86011C30.629 6.66185 31.2237 7.70149 31.3962 8.8203L31.5516 9.82045C32.2015 14.0263 32.1444 18.2903 31.3837 22.4839C31.2003 23.4934 30.6311 24.4221 29.7655 25.124C28.9 25.826 27.7871 26.2614 26.6016 26.3619L24.4713 26.5427C18.8374 27.0191 13.1625 27.0191 7.52867 26.5427L5.39834 26.3619C4.21291 26.2614 3.09999 25.826 2.23442 25.124C1.36884 24.4221 0.799652 23.4934 0.616262 22.4839C-0.14472 18.2913 -0.201247 14.0268 0.448407 9.82045L0.603762 8.8203C0.776301 7.70149 1.37098 6.66185 2.29701 5.86011C3.22304 5.05837 4.42953 4.5386 5.73226 4.38014V1.59873C5.73226 1.29407 5.87336 1.00189 6.12453 0.786462C6.37569 0.571037 6.71634 0.450012 7.07153 0.450012ZM7.86616 6.5045C13.2768 6.04654 18.7232 6.04654 24.1338 6.5045L25.7498 6.64234C27.298 6.77253 28.5355 7.80025 28.7409 9.12203L28.8962 10.1222C28.9498 10.4714 28.998 10.8206 29.0427 11.1713H2.9573C3.00194 10.8206 3.05016 10.4714 3.10373 10.1222L3.25908 9.12203C3.35818 8.47968 3.70763 7.88496 4.25065 7.4345C4.79366 6.98404 5.49832 6.70433 6.25011 6.64081L7.86616 6.5045ZM2.7448 13.4688C2.56943 16.3635 2.74297 19.2659 3.26265 22.1301C3.35469 22.6363 3.64015 23.1021 4.07421 23.4541C4.50827 23.8062 5.06635 24.0247 5.66084 24.0752L7.79116 24.2559C13.25 24.7185 18.7499 24.7185 24.2088 24.2559L26.3391 24.0752C26.9336 24.0247 27.4917 23.8062 27.9258 23.4541C28.3598 23.1021 28.6453 22.6363 28.7373 22.1301C29.2587 19.2629 29.4302 16.3605 29.2552 13.4688H2.7448Z" fill="#F3F3F3"/>
</svg>
