<svg width="20" height="15" viewBox="0 0 20 15" fill="#000000" xmlns="http://www.w3.org/2000/svg">
<path d="M18 12.3125C18.3852 12.3127 18.7556 12.4425 19.0344 12.6751C19.3132 12.9077 19.479 13.2253 19.4975 13.5619C19.516 13.8986 19.3858 14.2286 19.1338 14.4836C18.8818 14.7385 18.5274 14.8988 18.144 14.9314L18 14.9375H2C1.61478 14.9373 1.24441 14.8075 0.965613 14.5749C0.686821 14.3423 0.520988 14.0247 0.502476 13.6881C0.483964 13.3514 0.614192 13.0214 0.866175 12.7664C1.11816 12.5115 1.47258 12.3512 1.856 12.3186L2 12.3125H18ZM18 6.1875C18.3978 6.1875 18.7794 6.32578 19.0607 6.57192C19.342 6.81806 19.5 7.1519 19.5 7.5C19.5 7.8481 19.342 8.18194 19.0607 8.42808C18.7794 8.67422 18.3978 8.8125 18 8.8125H2C1.60218 8.8125 1.22064 8.67422 0.93934 8.42808C0.658035 8.18194 0.5 7.8481 0.5 7.5C0.5 7.1519 0.658035 6.81806 0.93934 6.57192C1.22064 6.32578 1.60218 6.1875 2 6.1875H18ZM18 0.0625C18.3978 0.0625 18.7794 0.200781 19.0607 0.446922C19.342 0.693064 19.5 1.0269 19.5 1.375C19.5 1.7231 19.342 2.05694 19.0607 2.30308C18.7794 2.54922 18.3978 2.6875 18 2.6875H2C1.60218 2.6875 1.22064 2.54922 0.93934 2.30308C0.658035 2.05694 0.5 1.7231 0.5 1.375C0.5 1.0269 0.658035 0.693064 0.93934 0.446922C1.22064 0.200781 1.60218 0.0625 2 0.0625H18Z" fill="#F3F3F3"/>
</svg>
