<svg width="20" height="25" viewBox="0 0 20 25" fill="none" xmlns="http://www.w3.org/2000/svg">
<path id="pesquisar" d="M7.9825 0.913087C6.73313 0.91387 5.50135 1.25864 4.38615 1.9197C3.27096 2.58075 2.30345 3.53965 1.56139 4.71931C0.819333 5.89898 0.323425 7.26652 0.113525 8.712C-0.0963756 10.1575 -0.0144141 11.6406 0.352822 13.0422C0.720058 14.4437 1.36233 15.7246 2.228 16.7819C3.09368 17.8392 4.15862 18.6433 5.33723 19.1298C6.51585 19.6162 7.77525 19.7714 9.01424 19.5827C10.2532 19.3941 11.4372 18.8669 12.4711 18.0436L17.4069 23.8319C17.544 24.0046 17.7093 24.1431 17.893 24.2392C18.0767 24.3353 18.275 24.3869 18.4761 24.3911C18.6771 24.3952 18.8769 24.3518 19.0633 24.2634C19.2498 24.175 19.4192 24.0435 19.5614 23.8766C19.7036 23.7097 19.8157 23.5109 19.891 23.292C19.9663 23.0732 20.0033 22.8388 19.9998 22.6028C19.9962 22.3668 19.9522 22.134 19.8704 21.9184C19.7885 21.7028 19.6705 21.5088 19.5234 21.3479L14.5915 15.5549C15.4075 14.1455 15.8806 12.5018 15.9602 10.8004C16.0397 9.09901 15.7226 7.40436 15.043 5.89867C14.3633 4.39297 13.3468 3.13318 12.1028 2.25475C10.8588 1.37631 9.43431 0.912468 7.9825 0.913087ZM2.99077 10.2869C2.99077 8.73306 3.51668 7.2429 4.45281 6.14419C5.38894 5.04549 6.65861 4.42825 7.9825 4.42825C9.30639 4.42825 10.5761 5.04549 11.5122 6.14419C12.4483 7.2429 12.9742 8.73306 12.9742 10.2869C12.9742 11.8407 12.4483 13.3308 11.5122 14.4295C10.5761 15.5282 9.30639 16.1455 7.9825 16.1455C6.65861 16.1455 5.38894 15.5282 4.45281 14.4295C3.51668 13.3308 2.99077 11.8407 2.99077 10.2869Z" fill="black"/>
</svg>
