<svg width="69" height="23" viewBox="0 0 69 23" fill="none" xmlns="http://www.w3.org/2000/svg">
<rect x="0.5" y="0.5" width="68" height="22" rx="11" stroke="black"/>
<path d="M40.1842 3C39.0598 3.0006 37.9512 3.26493 36.9475 3.77174C35.9439 4.27854 35.0731 5.0137 34.4053 5.91811C33.7374 6.82252 33.2911 7.87096 33.1022 8.97917C32.9133 10.0874 32.987 11.2244 33.3175 12.299C33.6481 13.3735 34.2261 14.3555 35.0052 15.1661C35.7843 15.9767 36.7428 16.5932 37.8035 16.9661C38.8643 17.3391 39.9977 17.458 41.1128 17.3134C42.2279 17.1688 43.2935 16.7646 44.224 16.1334L48.6662 20.5711C48.7896 20.7035 48.9384 20.8097 49.1037 20.8833C49.269 20.957 49.4475 20.9966 49.6285 20.9998C49.8094 21.003 49.9892 20.9697 50.157 20.9019C50.3248 20.8342 50.4773 20.7333 50.6052 20.6053C50.7332 20.4774 50.8341 20.325 50.9019 20.1572C50.9697 19.9894 51.003 19.8097 50.9998 19.6287C50.9966 19.4478 50.957 19.2694 50.8833 19.1041C50.8097 18.9388 50.7035 18.7901 50.571 18.6667L46.1324 14.2254C46.8667 13.1449 47.2926 11.8847 47.3641 10.5803C47.4357 9.27587 47.1503 7.97665 46.5387 6.82228C45.927 5.66791 45.0122 4.70207 43.8925 4.02861C42.7729 3.35514 41.4909 2.99953 40.1842 3ZM35.6917 10.1866C35.6917 8.99531 36.165 7.85285 37.0075 7.01052C37.85 6.16818 38.9927 5.69496 40.1842 5.69496C41.3757 5.69496 42.5184 6.16818 43.361 7.01052C44.2035 7.85285 44.6768 8.99531 44.6768 10.1866C44.6768 11.3778 44.2035 12.5203 43.361 13.3626C42.5184 14.2049 41.3757 14.6782 40.1842 14.6782C38.9927 14.6782 37.85 14.2049 37.0075 13.3626C36.165 12.5203 35.6917 11.3778 35.6917 10.1866Z" fill="black"/>
</svg>
