<svg width="33" height="33" viewBox="0 0 33 33" fill="none" xmlns="http://www.w3.org/2000/svg">
<g id="phone" filter="url(#filter0_d_2012_1685)">
<path id="Vector" d="M20.6665 10.3332L26.222 4.77771M26.222 4.77771V8.94435M26.222 4.77771H22.0554" stroke="#333333" stroke-width="1.5" stroke-linecap="round" stroke-linejoin="round"/>
<g id="Vector_2" opacity="0.5" filter="url(#filter1_i_2012_1685)">
<path d="M21.4386 18.0389L20.8066 18.7055C20.8066 18.7055 19.3025 20.2874 15.1983 15.9666C11.0942 11.6458 12.5984 10.0639 12.5984 10.0639L12.997 9.64307C13.9775 8.60975 14.0706 6.95142 13.2136 5.74032L11.4636 3.26395C10.4025 1.76396 8.35394 1.56674 7.13867 2.8459L4.95952 5.13894C4.35813 5.77365 3.95536 6.59448 4.00397 7.50698C4.12897 9.84029 5.12618 14.8583 10.6873 20.7152C16.5858 26.9235 22.1205 27.1707 24.383 26.9471C25.0997 26.8777 25.7219 26.4902 26.2233 25.9624L28.1955 23.8846C29.5288 22.4819 29.1538 20.0791 27.4483 19.0986L24.7955 17.5708C23.6761 16.9277 22.3136 17.1166 21.4386 18.0375" fill="#01C409"/>
</g>
</g>
<defs>
<filter id="filter0_d_2012_1685" x="0" y="0" width="33" height="32.9984" filterUnits="userSpaceOnUse" color-interpolation-filters="sRGB">
<feFlood flood-opacity="0" result="BackgroundImageFix"/>
<feColorMatrix in="SourceAlpha" type="matrix" values="0 0 0 0 0 0 0 0 0 0 0 0 0 0 0 0 0 0 127 0" result="hardAlpha"/>
<feOffset dy="2"/>
<feGaussianBlur stdDeviation="2"/>
<feComposite in2="hardAlpha" operator="out"/>
<feColorMatrix type="matrix" values="0 0 0 0 0 0 0 0 0 0 0 0 0 0 0 0 0 0 0.25 0"/>
<feBlend mode="normal" in2="BackgroundImageFix" result="effect1_dropShadow_2012_1685"/>
<feBlend mode="normal" in="SourceGraphic" in2="effect1_dropShadow_2012_1685" result="shape"/>
</filter>
<filter id="filter1_i_2012_1685" x="4" y="2" width="25" height="28.9984" filterUnits="userSpaceOnUse" color-interpolation-filters="sRGB">
<feFlood flood-opacity="0" result="BackgroundImageFix"/>
<feBlend mode="normal" in="SourceGraphic" in2="BackgroundImageFix" result="shape"/>
<feColorMatrix in="SourceAlpha" type="matrix" values="0 0 0 0 0 0 0 0 0 0 0 0 0 0 0 0 0 0 127 0" result="hardAlpha"/>
<feOffset dy="4"/>
<feGaussianBlur stdDeviation="2"/>
<feComposite in2="hardAlpha" operator="arithmetic" k2="-1" k3="1"/>
<feColorMatrix type="matrix" values="0 0 0 0 0.0358259 0 0 0 0 0.249948 0 0 0 0 0.180031 0 0 0 0.4 0"/>
<feBlend mode="normal" in2="shape" result="effect1_innerShadow_2012_1685"/>
</filter>
</defs>
</svg>
