<svg width="16" height="15" viewBox="0 0 16 15" fill="none" xmlns="http://www.w3.org/2000/svg">
<path d="M1.615 6C1.155 6 0.771 5.846 0.463 5.538C0.154333 5.22933 0 4.845 0 4.385V1.615C0 1.155 0.154333 0.771 0.463 0.463C0.771 0.154334 1.155 0 1.615 0H14.385C14.845 0 15.229 0.154334 15.537 0.463C15.8457 0.771 16 1.155 16 1.615V4.385C16 4.845 15.846 5.22933 15.538 5.538C15.2293 5.846 14.845 6 14.385 6H1.615ZM1.615 14.77C1.155 14.77 0.771 14.6157 0.463 14.307C0.154333 13.999 0 13.615 0 13.155V10.385C0 9.925 0.154333 9.54067 0.463 9.232C0.771 8.924 1.155 8.77 1.615 8.77H14.385C14.845 8.77 15.229 8.924 15.537 9.232C15.8457 9.54067 16 9.925 16 10.385V13.155C16 13.615 15.846 13.999 15.538 14.307C15.2293 14.6157 14.845 14.77 14.385 14.77H1.615Z" fill="black"/>
</svg>
