<svg width="22" height="22" viewBox="0 0 22 22" fill="none" xmlns="http://www.w3.org/2000/svg">
<g id="despesas">
<path id="Vector" d="M1 11C1 6.286 1 3.929 2.464 2.464C3.93 1 6.286 1 11 1C15.714 1 18.071 1 19.535 2.464C21 3.93 21 6.286 21 11C21 15.714 21 18.071 19.535 19.535C18.072 21 15.714 21 11 21C6.286 21 3.929 21 2.464 19.535C1 18.072 1 15.714 1 11Z" stroke="hsl(220, 20%, 80%)" stroke-width="1.5"/>
<path id="Vector_2" d="M6 9L8.293 11.293C8.48053 11.4805 8.73484 11.5858 9 11.5858C9.26516 11.5858 9.51947 11.4805 9.707 11.293L11.293 9.707C11.4805 9.51953 11.7348 9.41421 12 9.41421C12.2652 9.41421 12.5195 9.51953 12.707 9.707L16 13M16 13V10.5M16 13H13.5" stroke="hsl(220, 20%, 80%)" stroke-width="1.5" stroke-linecap="round" stroke-linejoin="round"/>
</g>
</svg>
